<svg xmlns="http://www.w3.org/2000/svg" viewBox="0 0 512 512" width="512" height="512" preserveAspectRatio="xMidYMid meet" style="width: 100%; height: 100%; transform: translate3d(0px, 0px, 0px); content-visibility: visible;"><defs><clipPath id="__lottie_element_2"><rect width="512" height="512" x="0" y="0"/></clipPath><clipPath id="__lottie_element_4"><path d="M0,0 L512,0 L512,512 L0,512z"/></clipPath><linearGradient id="__lottie_element_44" spreadMethod="pad" gradientUnits="userSpaceOnUse" x1="-33.86408615112305" y1="0.807435929775238" x2="128.6529998779297" y2="-3.925600528717041"><stop offset="18%" stop-color="rgb(0,0,0)"/><stop offset="18%" stop-color="rgb(6,56,93)"/><stop offset="18%" stop-color="rgb(12,112,185)"/><stop offset="38%" stop-color="rgb(12,112,185)"/><stop offset="58%" stop-color="rgb(12,112,185)"/><stop offset="58%" stop-color="rgb(6,56,93)"/><stop offset="59%" stop-color="rgb(0,0,0)"/></linearGradient><linearGradient id="__lottie_element_48" spreadMethod="pad" gradientUnits="userSpaceOnUse" x1="-33.86408615112305" y1="0.807435929775238" x2="128.6529998779297" y2="-3.925600528717041"><stop offset="18%" stop-color="rgb(0,0,0)"/><stop offset="18%" stop-color="rgb(6,56,93)"/><stop offset="18%" stop-color="rgb(12,112,185)"/><stop offset="38%" stop-color="rgb(12,112,185)"/><stop offset="58%" stop-color="rgb(12,112,185)"/><stop offset="58%" stop-color="rgb(6,56,93)"/><stop offset="59%" stop-color="rgb(0,0,0)"/></linearGradient></defs><g clip-path="url(#__lottie_element_2)"><g clip-path="url(#__lottie_element_4)" transform="matrix(1,0,0,1,0,0)" opacity="1" style="display: block;"><g transform="matrix(0.9195327758789062,-0.3930108845233917,0.3930108845233917,0.9195327758789062,30.55413055419922,370.40228271484375)" opacity="1" style="display: none;"><g opacity="1" transform="matrix(1,0,0,1,0,0)"><path fill="rgb(255,250,202)" fill-opacity="1" d=" M47.92652893066406,-43.55241394042969 C47.659034729003906,-56.78717041015625 46.79676055908203,-69.50888061523438 46.88011169433594,-85.8440933227539 C31.933292388916016,-48.54096984863281 7.0446014404296875,9.499218940734863 -3.962811231613159,34.54900360107422 C-4.755435466766357,46.063350677490234 -4.924637794494629,66.64166259765625 -4.6719255447387695,80.40886688232422 C3.225821018218994,63.16905975341797 37.4119873046875,-15.8995361328125 47.92652893066406,-43.55241394042969z"/><path stroke-linecap="round" stroke-linejoin="round" fill-opacity="0" stroke="rgb(188,168,113)" stroke-opacity="1" stroke-width="10" d=" M47.92652893066406,-43.55241394042969 C47.659034729003906,-56.78717041015625 46.79676055908203,-69.50888061523438 46.88011169433594,-85.8440933227539 C31.933292388916016,-48.54096984863281 7.0446014404296875,9.499218940734863 -3.962811231613159,34.54900360107422 C-4.755435466766357,46.063350677490234 -4.924637794494629,66.64166259765625 -4.6719255447387695,80.40886688232422 C3.225821018218994,63.16905975341797 37.4119873046875,-15.8995361328125 47.92652893066406,-43.55241394042969z"/></g></g><g transform="matrix(1.100000023841858,0,0,1.100000023841858,252.99969482421875,384.0968933105469)" opacity="1" style="display: block;"><g opacity="1" transform="matrix(1,0,0,1,0,0)"><path fill="rgb(255,213,39)" fill-opacity="1" d=" M-0.3970000147819519,103.67400360107422 C-69.06600189208984,103.67400360107422 -160.91600036621094,103.67400360107422 -160.81700134277344,37.25 C-150,-73.42900085449219 -62.12099838256836,-91.96800231933594 -3.7009999752044678,-91.96800231933594 C74.54900360107422,-91.96800231933594 149.66000366210938,-37.96699905395508 148.4499969482422,36.97200012207031 C147.25799560546875,110.82099914550781 68.62100219726562,103.67400360107422 -0.3970000147819519,103.67400360107422z"/><path stroke-linecap="butt" stroke-linejoin="miter" fill-opacity="0" stroke-miterlimit="10" stroke="rgb(250,144,22)" stroke-opacity="1" stroke-width="9.091" d=" M-0.3970000147819519,103.67400360107422 C-69.06600189208984,103.67400360107422 -160.91600036621094,103.67400360107422 -160.81700134277344,37.25 C-150,-73.42900085449219 -62.12099838256836,-91.96800231933594 -3.7009999752044678,-91.96800231933594 C74.54900360107422,-91.96800231933594 149.66000366210938,-37.96699905395508 148.4499969482422,36.97200012207031 C147.25799560546875,110.82099914550781 68.62100219726562,103.67400360107422 -0.3970000147819519,103.67400360107422z"/></g></g><g transform="matrix(1.100000023841858,0,0,1.100000023841858,253.16139221191406,407.35858154296875)" opacity="1" style="display: block;"><g opacity="1" transform="matrix(0.9776366353034973,-0.21030113101005554,0.21030113101005554,0.9776366353034973,0,0)"><path stroke-linecap="round" stroke-linejoin="round" fill-opacity="0" stroke="rgb(255,255,255)" stroke-opacity="1" stroke-width="8.869" d=" M114.62899780273438,-20.00200080871582 C118.15399932861328,-14.20199966430664 120.95899963378906,-6.697000026702881 122.65299987792969,1.7790000438690186"/></g></g><g transform="matrix(1.100000023841858,0,0,1.100000023841858,252.99969482421875,193.78810119628906)" opacity="1" style="display: block;"><g opacity="1" transform="matrix(1,0,0,1,0,0)"><path fill="rgb(255,213,39)" fill-opacity="1" d=" M-110.43599700927734,130.60400390625 C-141.66700744628906,106.26000213623047 -157.3719940185547,68.63600158691406 -157.3719940185547,32.06100082397461 C-157.3719940185547,-45.637001037597656 -86.91500091552734,-122.12200164794922 0,-122.12200164794922 C86.91400146484375,-122.12200164794922 157.3719940185547,-45.637001037597656 157.3719940185547,32.06100082397461 C157.3719940185547,68.73500061035156 139.81500244140625,110.7239990234375 106.52799987792969,131.72799682617188"/><path stroke-linecap="round" stroke-linejoin="round" fill-opacity="0" stroke="rgb(250,144,22)" stroke-opacity="1" stroke-width="9.091" d=" M-110.43599700927734,130.60400390625 C-141.66700744628906,106.26000213623047 -157.3719940185547,68.63600158691406 -157.3719940185547,32.06100082397461 C-157.3719940185547,-45.637001037597656 -86.91500091552734,-122.12200164794922 0,-122.12200164794922 C86.91400146484375,-122.12200164794922 157.3719940185547,-45.637001037597656 157.3719940185547,32.06100082397461 C157.3719940185547,68.73500061035156 139.81500244140625,110.7239990234375 106.52799987792969,131.72799682617188"/></g></g><g transform="matrix(1.100000023841858,0,0,1.100000023841858,127.44898986816406,214.62318420410156)" opacity="1" style="display: block;"><g opacity="1" transform="matrix(1,0,0,1,0,0)"><path stroke-linecap="round" stroke-linejoin="round" fill-opacity="0" stroke="rgb(252,238,33)" stroke-opacity="1" stroke-width="8.869" d=" M-22.333999633789062,5.804999828338623 C-22.47100067138672,8.017000198364258 -22.540000915527344,10.232000350952148 -22.540000915527344,12.447999954223633 C-22.540000915527344,28.72100067138672 -18.809999465942383,43.55400085449219 -12.045999526977539,56.68000030517578"/></g></g><g transform="matrix(1.100000023841858,0,0,1.100000023841858,255.19969177246094,220.97349548339844)" opacity="1" style="display: block;"><g opacity="1" transform="matrix(1,0,0,1,0,0)"><path stroke-linecap="round" stroke-linejoin="round" fill-opacity="0" stroke="rgb(255,255,255)" stroke-opacity="1" stroke-width="8.869" d=" M117.76200103759766,66.11399841308594 C131.5189971923828,46.715999603271484 134.68299865722656,23.4950008392334 134.0330047607422,4.046000003814697"/></g></g><g transform="matrix(0.8416546583175659,0.030682064592838287,-0.036649201065301895,1.0053421258926392,-16.49745750427246,345.2831115722656)" opacity="1" style="display: block;"><path stroke-linecap="butt" stroke-linejoin="miter" fill-opacity="0" stroke-miterlimit="4" stroke="rgb(0,0,0)" stroke-opacity="1" stroke-width="0" d=" M145.42599487304688,-138 C154.11500549316406,-138 161.53599548339844,-131.5800018310547 164.48800659179688,-122.53099822998047 C165.36900329589844,-119.83200073242188 165.8520050048828,-116.89800262451172 165.8520050048828,-113.83100128173828 C165.8520050048828,-110.85800170898438 165.3979949951172,-108.01000213623047 164.5679931640625,-105.37899780273438 C161.6719970703125,-96.1989974975586 154.19400024414062,-89.66200256347656 145.42599487304688,-89.66200256347656 C137.08999633789062,-89.66200256347656 129.9199981689453,-95.56999969482422 126.74500274658203,-104.04100036621094 C125.62300109863281,-107.03399658203125 125,-110.34600067138672 125,-113.83100128173828 C125,-116.7040023803711 125.42400360107422,-119.45899963378906 126.20099639892578,-122.01499938964844 C129.03500366210938,-131.3350067138672 136.572998046875,-138 145.42599487304688,-138z"/><g opacity="1" transform="matrix(1,0,0,1,0,0)"><path fill="rgb(0,0,0)" fill-opacity="1" d=" M145.42599487304688,-138 C154.11500549316406,-138 161.53599548339844,-131.5800018310547 164.48800659179688,-122.53099822998047 C165.36900329589844,-119.83200073242188 165.8520050048828,-116.89800262451172 165.8520050048828,-113.83100128173828 C165.8520050048828,-110.85800170898438 165.3979949951172,-108.01000213623047 164.5679931640625,-105.37899780273438 C161.6719970703125,-96.1989974975586 154.19400024414062,-89.66200256347656 145.42599487304688,-89.66200256347656 C137.08999633789062,-89.66200256347656 129.9199981689453,-95.56999969482422 126.74500274658203,-104.04100036621094 C125.62300109863281,-107.03399658203125 125,-110.34600067138672 125,-113.83100128173828 C125,-116.7040023803711 125.42400360107422,-119.45899963378906 126.20099639892578,-122.01499938964844 C129.03500366210938,-131.3350067138672 136.572998046875,-138 145.42599487304688,-138z"/></g></g><g transform="matrix(0.6733238101005554,0.02454565092921257,-0.029319360852241516,0.804273784160614,114.77278900146484,224.63034057617188)" opacity="1" style="display: block;"><g opacity="1" transform="matrix(1,0,0,1,0,0)"><path fill="rgb(255,255,255)" fill-opacity="1" d=" M-6.406000137329102,3.2860000133514404 C-4.247000217437744,7.494999885559082 0.3709999918937683,9.435999870300293 3.9089999198913574,7.620999813079834 C7.447000026702881,5.806000232696533 8.5649995803833,0.9229999780654907 6.406000137329102,-3.2860000133514404 C4.247000217437744,-7.494999885559082 -0.3709999918937683,-9.435999870300293 -3.9089999198913574,-7.620999813079834 C-7.447000026702881,-5.806000232696533 -8.5649995803833,-0.9229999780654907 -6.406000137329102,3.2860000133514404z"/></g></g><g transform="matrix(0.9777399301528931,0.03564297780394554,-0.036649201065301895,1.0053421258926392,95.40502166748047,344.46453857421875)" opacity="1" style="display: block;"><path stroke-linecap="butt" stroke-linejoin="miter" fill-opacity="0" stroke-miterlimit="4" stroke="rgb(0,0,0)" stroke-opacity="1" stroke-width="0" d=" M145.42599487304688,-138 C154.11500549316406,-138 161.53599548339844,-131.5800018310547 164.48800659179688,-122.53099822998047 C165.36900329589844,-119.83200073242188 165.8520050048828,-116.89800262451172 165.8520050048828,-113.83100128173828 C165.8520050048828,-110.85800170898438 165.3979949951172,-108.01000213623047 164.5679931640625,-105.37899780273438 C161.6719970703125,-96.1989974975586 154.19400024414062,-89.66200256347656 145.42599487304688,-89.66200256347656 C137.08999633789062,-89.66200256347656 129.9199981689453,-95.56999969482422 126.74500274658203,-104.04100036621094 C125.62300109863281,-107.03399658203125 125,-110.34600067138672 125,-113.83100128173828 C125,-116.7040023803711 125.42400360107422,-119.45899963378906 126.20099639892578,-122.01499938964844 C129.03500366210938,-131.3350067138672 136.572998046875,-138 145.42599487304688,-138z"/><g opacity="1" transform="matrix(1,0,0,1,0,0)"><path fill="rgb(0,0,0)" fill-opacity="1" d=" M145.42599487304688,-138 C154.11500549316406,-138 161.53599548339844,-131.5800018310547 164.48800659179688,-122.53099822998047 C165.36900329589844,-119.83200073242188 165.8520050048828,-116.89800262451172 165.8520050048828,-113.83100128173828 C165.8520050048828,-110.85800170898438 165.3979949951172,-108.01000213623047 164.5679931640625,-105.37899780273438 C161.6719970703125,-96.1989974975586 154.19400024414062,-89.66200256347656 145.42599487304688,-89.66200256347656 C137.08999633789062,-89.66200256347656 129.9199981689453,-95.56999969482422 126.74500274658203,-104.04100036621094 C125.62300109863281,-107.03399658203125 125,-110.34600067138672 125,-113.83100128173828 C125,-116.7040023803711 125.42400360107422,-119.45899963378906 126.20099639892578,-122.01499938964844 C129.03500366210938,-131.3350067138672 136.572998046875,-138 145.42599487304688,-138z"/></g></g><g transform="matrix(0.782192051410675,0.028514381498098373,-0.029319360852241516,0.804273784160614,247.16168212890625,224.55860900878906)" opacity="1" style="display: block;"><g opacity="1" transform="matrix(1,0,0,1,0,0)"><path fill="rgb(255,255,255)" fill-opacity="1" d=" M-6.406000137329102,3.2860000133514404 C-4.247000217437744,7.494999885559082 0.3709999918937683,9.435999870300293 3.9089999198913574,7.620999813079834 C7.447000026702881,5.806000232696533 8.5649995803833,0.9229999780654907 6.406000137329102,-3.2860000133514404 C4.247000217437744,-7.494999885559082 -0.3709999918937683,-9.435999870300293 -3.9089999198913574,-7.620999813079834 C-7.447000026702881,-5.806000232696533 -8.5649995803833,-0.9229999780654907 -6.406000137329102,3.2860000133514404z"/></g></g><g transform="matrix(0.8799666166305542,0.03207870200276375,-0.032984279096126556,0.904807984828949,167.42578125,217.59857177734375)" opacity="1" style="display: block;"><g opacity="1" transform="matrix(1,0,0,1,0,0)"><path stroke-linecap="round" stroke-linejoin="round" fill-opacity="0" stroke="rgb(0,0,0)" stroke-opacity="1" stroke-width="15" d=" M-20.81718635559082,13.151512145996094 C-15.755186080932617,-2.3754873275756836 16.284000396728516,-2.4240000247955322 21.641000747680664,13.965999603271484"/></g></g><g transform="matrix(0.7420780658721924,0.027052052319049835,-0.032984279096126556,0.904807984828949,98.68041229248047,236.41726684570312)" opacity="1" style="display: block;"><g opacity="1" transform="matrix(1,0,0,1,0,0)"><path fill="url(#__lottie_element_44)" fill-opacity="0.8" d=" M-67.34017181396484,-29.651016235351562 C-67.34017181396484,-29.651016235351562 67.23500061035156,-30.80500030517578 67.23500061035156,-30.80500030517578 C67.23500061035156,-30.80500030517578 54.17499923706055,15.958999633789062 54.17499923706055,15.958999633789062 C51.6870002746582,24.868000030517578 42.874000549316406,31.052000045776367 32.68899917602539,31.03499984741211 C32.68899917602539,31.03499984741211 -25.559558868408203,32.31261444091797 -25.559558868408203,32.31261444091797 C-35.022560119628906,32.29661560058594 -43.5605583190918,26.915897369384766 -46.92055892944336,18.85089683532715 C-46.92055892944336,18.85089683532715 -67.34017181396484,-29.651016235351562 -67.34017181396484,-29.651016235351562z"/><path stroke-linecap="round" stroke-linejoin="round" fill-opacity="0" stroke="rgb(0,0,0)" stroke-opacity="1" stroke-width="13.457974608867882" d=" M-67.34017181396484,-29.651016235351562 C-67.34017181396484,-29.651016235351562 67.23500061035156,-30.80500030517578 67.23500061035156,-30.80500030517578 C67.23500061035156,-30.80500030517578 54.17499923706055,15.958999633789062 54.17499923706055,15.958999633789062 C51.6870002746582,24.868000030517578 42.874000549316406,31.052000045776367 32.68899917602539,31.03499984741211 C32.68899917602539,31.03499984741211 -25.559558868408203,32.31261444091797 -25.559558868408203,32.31261444091797 C-35.022560119628906,32.29661560058594 -43.5605583190918,26.915897369384766 -46.92055892944336,18.85089683532715 C-46.92055892944336,18.85089683532715 -67.34017181396484,-29.651016235351562 -67.34017181396484,-29.651016235351562z"/></g></g><g transform="matrix(0.8799666166305542,0.03207870200276375,-0.032984279096126556,0.904807984828949,242.65797424316406,241.91685485839844)" opacity="1" style="display: block;"><g opacity="1" transform="matrix(1,0,0,1,0,0)"><path fill="url(#__lottie_element_48)" fill-opacity="0.8" d=" M66.95491790771484,-34.39079666137695 C66.95491790771484,-34.39079666137695 -67.31834411621094,-32.55729675292969 -67.31834411621094,-32.55729675292969 C-67.31834411621094,-32.55729675292969 -52.665000915527344,15.781000137329102 -52.665000915527344,15.781000137329102 C-49.888999938964844,24.698999404907227 -40.875999450683594,30.913999557495117 -30.69099998474121,30.930999755859375 C-30.69099998474121,30.930999755859375 27.505395889282227,29.654386520385742 27.505395889282227,29.654386520385742 C36.9683952331543,29.670385360717773 45.333396911621094,24.319385528564453 48.432395935058594,16.2653865814209 C48.432395935058594,16.2653865814209 66.95491790771484,-34.39079666137695 66.95491790771484,-34.39079666137695z"/><path stroke-linecap="round" stroke-linejoin="round" fill-opacity="0" stroke="rgb(0,0,0)" stroke-opacity="1" stroke-width="12" d=" M66.95491790771484,-34.39079666137695 C66.95491790771484,-34.39079666137695 -67.31834411621094,-32.55729675292969 -67.31834411621094,-32.55729675292969 C-67.31834411621094,-32.55729675292969 -52.665000915527344,15.781000137329102 -52.665000915527344,15.781000137329102 C-49.888999938964844,24.698999404907227 -40.875999450683594,30.913999557495117 -30.69099998474121,30.930999755859375 C-30.69099998474121,30.930999755859375 27.505395889282227,29.654386520385742 27.505395889282227,29.654386520385742 C36.9683952331543,29.670385360717773 45.333396911621094,24.319385528564453 48.432395935058594,16.2653865814209 C48.432395935058594,16.2653865814209 66.95491790771484,-34.39079666137695 66.95491790771484,-34.39079666137695z"/></g></g><g transform="matrix(0.9777407050132751,0.03564300388097763,-0.036649201065301895,1.0053421258926392,170.9086456298828,278.9003601074219)" opacity="1" style="display: block;"><g opacity="1" transform="matrix(1,0,0,1,0,0)"><path fill="rgb(255,93,31)" fill-opacity="1" d=" M-61.892478942871094,29.707847595214844 C-47.82317352294922,30.752254486083984 -30.3429012298584,28.3055419921875 -5.241919994354248,26.62074089050293 C25.756772994995117,24.758359909057617 33.33460235595703,26.586660385131836 51.74711608886719,25.381290435791016 C57.50617980957031,25.104578018188477 68.2514419555664,22.771961212158203 69.71539306640625,12.47264575958252 C70.7489242553711,5.0698089599609375 69.22000885009766,-3.475987434387207 50.69191360473633,-7.629663944244385 C5.003315448760986,-17.86269187927246 17.83107566833496,-53.031463623046875 -7.350925445556641,-51.55246353149414 C-32.51492691040039,-50.074462890625 -40.65826416015625,-5.213347434997559 -66.23585510253906,-0.9939961433410645 C-79.04705810546875,1.4746350049972534 -88.55192565917969,11.634206771850586 -74.9322280883789,17.75099754333496 C-78.92042541503906,26.6935977935791 -69.5177230834961,29.239646911621094 -61.892478942871094,29.707847595214844z"/><path stroke-linecap="round" stroke-linejoin="round" fill-opacity="0" stroke="rgb(207,53,2)" stroke-opacity="1" stroke-width="8.869" d=" M-61.892478942871094,29.707847595214844 C-47.82317352294922,30.752254486083984 -30.3429012298584,28.3055419921875 -5.241919994354248,26.62074089050293 C25.756772994995117,24.758359909057617 33.33460235595703,26.586660385131836 51.74711608886719,25.381290435791016 C57.50617980957031,25.104578018188477 68.2514419555664,22.771961212158203 69.71539306640625,12.47264575958252 C70.7489242553711,5.0698089599609375 69.22000885009766,-3.475987434387207 50.69191360473633,-7.629663944244385 C5.003315448760986,-17.86269187927246 17.83107566833496,-53.031463623046875 -7.350925445556641,-51.55246353149414 C-32.51492691040039,-50.074462890625 -40.65826416015625,-5.213347434997559 -66.23585510253906,-0.9939961433410645 C-79.04705810546875,1.4746350049972534 -88.55192565917969,11.634206771850586 -74.9322280883789,17.75099754333496 C-78.92042541503906,26.6935977935791 -69.5177230834961,29.239646911621094 -61.892478942871094,29.707847595214844z"/></g></g><g transform="matrix(0.9777407050132751,0.03564300388097763,-0.036649201065301895,1.0053421258926392,168.2528533935547,298.6844482421875)" opacity="1" style="display: block;"><g opacity="1" transform="matrix(1,0,0,1,0,0)"><path stroke-linecap="round" stroke-linejoin="round" fill-opacity="0" stroke="rgb(125,9,9)" stroke-opacity="1" stroke-width="8.869" d=" M55.48638916015625,-9.107564926147461 C27.819293975830078,-9.31972885131836 -32.352783203125,-9.677980422973633 -66.63731384277344,-4.257434368133545"/></g></g><g transform="matrix(1.031538486480713,0.26308098435401917,-0.2579687833786011,1.0611157417297363,197.06915283203125,268.4036865234375)" opacity="1" style="display: block;"><g opacity="1" transform="matrix(1,0,0,1,24.70599937438965,22.10700035095215)"><path stroke-linecap="round" stroke-linejoin="round" fill-opacity="0" stroke="rgb(255,180,132)" stroke-opacity="1" stroke-width="8" d=" M-40.30699920654297,-25.149999618530273 C-45.64699935913086,-29.97100067138672 -49.34199905395508,-34.60599899291992 -57.768001556396484,-41.11199951171875"/></g></g><g transform="matrix(0.9997039437294006,-0.024289799854159355,0.024289799854159355,0.9997039437294006,245.88998413085938,151.3878631591797)" opacity="1" style="display: block;"><g opacity="1" transform="matrix(1,0,0,1,0,0)"><path fill="rgb(136,126,104)" fill-opacity="1" d=" M238.10211181640625,3.0314862728118896 C238.10211181640625,15.090957641601562 134.02877807617188,34.7443733215332 -8.758350372314453,33.703208923339844 C-136.6826934814453,32.95851516723633 -225.21017456054688,15.090957641601562 -225.21017456054688,3.0314862728118896 C-225.21017456054688,-9.027984619140625 -121.49453735351562,-10.385810852050781 6.445617198944092,-10.385810852050781 C134.38577270507812,-10.385810852050781 238.10211181640625,-9.027984619140625 238.10211181640625,3.0314862728118896z"/><path stroke-linecap="round" stroke-linejoin="round" fill-opacity="0" stroke="rgb(62,57,45)" stroke-opacity="1" stroke-width="10" d=" M238.10211181640625,3.0314862728118896 C238.10211181640625,15.090957641601562 134.02877807617188,34.7443733215332 -8.758350372314453,33.703208923339844 C-136.6826934814453,32.95851516723633 -225.21017456054688,15.090957641601562 -225.21017456054688,3.0314862728118896 C-225.21017456054688,-9.027984619140625 -121.49453735351562,-10.385810852050781 6.445617198944092,-10.385810852050781 C134.38577270507812,-10.385810852050781 238.10211181640625,-9.027984619140625 238.10211181640625,3.0314862728118896z"/></g></g><g transform="matrix(0.9997039437294006,-0.024289799854159355,0.024289799854159355,0.9997039437294006,244.8745574951172,80.98283386230469)" opacity="1" style="display: block;"><g opacity="1" transform="matrix(1,0,0,1,0,0)"><path fill="rgb(136,126,104)" fill-opacity="1" d=" M-151.5221405029297,73.13434600830078 C-140.88388061523438,34.27068328857422 -121.00886535644531,-46.5268440246582 -75.70336151123047,-45.983150482177734 C-51.749393463134766,-45.7375602722168 -43.206085205078125,-38.45811462402344 -14.977829933166504,-37.7261962890625 C26.862565994262695,-36.76165771484375 39.59658432006836,-56.55976486206055 103.80044555664062,-45.88010787963867 C126.3257064819336,-41.884822845458984 159.805908203125,35.73115921020508 165.98284912109375,73.95758056640625"/><path stroke-linecap="round" stroke-linejoin="round" fill-opacity="0" stroke="rgb(62,57,45)" stroke-opacity="1" stroke-width="10" d=" M-151.5221405029297,73.13434600830078 C-140.88388061523438,34.27068328857422 -121.00886535644531,-46.5268440246582 -75.70336151123047,-45.983150482177734 C-51.749393463134766,-45.7375602722168 -43.206085205078125,-38.45811462402344 -14.977829933166504,-37.7261962890625 C26.862565994262695,-36.76165771484375 39.59658432006836,-56.55976486206055 103.80044555664062,-45.88010787963867 C126.3257064819336,-41.884822845458984 159.805908203125,35.73115921020508 165.98284912109375,73.95758056640625"/></g></g><g transform="matrix(1.0996743440628052,-0.026718780398368835,0.026718780398368835,1.0996743440628052,253.83035278320312,351.51385498046875)" opacity="0.33" style="display: block;"><g opacity="1" transform="matrix(0.9776366353034973,-0.21030113101005554,0.21030113101005554,0.9776366353034973,0,0)"><path stroke-linecap="round" stroke-linejoin="round" fill-opacity="0" stroke="rgb(197,187,167)" stroke-opacity="1" stroke-width="20" d=" M119.28399658203125,-248.8090057373047 C93.93599700927734,-222.00100708007812 105.125,-188.10299682617188 134.43299865722656,-169.80599975585938"/></g></g><g transform="matrix(1.0996743440628052,-0.026718780398368835,0.026718780398368835,1.0996743440628052,253.83035278320312,351.51385498046875)" opacity="0.1" style="display: block;"><g opacity="1" transform="matrix(0.9776366353034973,-0.21030113101005554,0.21030113101005554,0.9776366353034973,0,0)"><path stroke-linecap="round" stroke-linejoin="round" fill-opacity="0" stroke="rgb(62,57,45)" stroke-opacity="1" stroke-width="30" d=" M-26.59600067138672,-282.5820007324219 C-52.30099868774414,-265.59100341796875 -73.53099822998047,-228.4040069580078 -85.35399627685547,-211.14100646972656"/></g></g><g transform="matrix(0.9997039437294006,-0.024289799854159355,0.024289799854159355,0.9997039437294006,244.8745574951172,80.98283386230469)" opacity="0.5" style="display: block;"><g opacity="1" transform="matrix(1,0,0,1,0,0)"><path stroke-linecap="round" stroke-linejoin="round" fill-opacity="0" stroke="rgb(62,57,45)" stroke-opacity="1" stroke-width="10" d=" M-75.70336151123047,-45.983150482177734 C-53.875431060791016,-45.054168701171875 -64.77653503417969,-12.929052352905273 -36.548282623291016,-12.19713306427002 C5.2921142578125,-11.232593536376953 37.824073791503906,-60.319129943847656 103.80044555664062,-45.88010787963867"/></g></g><g transform="matrix(0.9195327758789062,-0.3930108845233917,0.3930108845233917,0.9195327758789062,191.9989013671875,154.60838317871094)" opacity="1" style="display: none;"><g opacity="1" transform="matrix(1,0,0,1,0,0)"><path fill="rgb(255,250,202)" fill-opacity="1" d=" M72.5199966430664,-47.433998107910156 C72.5199966430664,-47.433998107910156 -35.76900100708008,-86.4280014038086 -35.76900100708008,-86.4280014038086 C-35.76900100708008,-86.4280014038086 -35.823001861572266,-86.22899627685547 -35.823001861572266,-86.22899627685547 C-35.823001861572266,-86.22899627685547 73.41699981689453,-48.2760009765625 73.41699981689453,-48.2760009765625 C73.41699981689453,-48.2760009765625 72.5199966430664,-47.433998107910156 72.5199966430664,-47.433998107910156z"/><path stroke-linecap="round" stroke-linejoin="round" fill-opacity="0" stroke="rgb(188,168,113)" stroke-opacity="1" stroke-width="9.03927999999999" d=" M72.5199966430664,-47.433998107910156 C72.5199966430664,-47.433998107910156 -35.76900100708008,-86.4280014038086 -35.76900100708008,-86.4280014038086 C-35.76900100708008,-86.4280014038086 -35.823001861572266,-86.22899627685547 -35.823001861572266,-86.22899627685547 C-35.823001861572266,-86.22899627685547 73.41699981689453,-48.2760009765625 73.41699981689453,-48.2760009765625 C73.41699981689453,-48.2760009765625 72.5199966430664,-47.433998107910156 72.5199966430664,-47.433998107910156z"/></g></g><g transform="matrix(0.9195327758789062,-0.3930108845233917,0.3930108845233917,0.9195327758789062,191.9989013671875,275.478271484375)" opacity="1" style="display: none;"><g opacity="1" transform="matrix(1,0,0,1,0,0)"><path fill="rgb(53,48,33)" fill-opacity="1" d=" M8.17300033569336,-203.28399658203125 C11.475000381469727,-201.33599853515625 1.7970000505447388,-199.88600158691406 6.419000148773193,-196.38900756835938 C25.958999633789062,-181.6060028076172 93.06500244140625,-172.36199951171875 118.3550033569336,-156.31399536132812 C126.02100372314453,-151.4499969482422 115.34100341796875,-160.19200134277344 121.80699920654297,-157.7689971923828 C123.1729965209961,-163.42300415039062 18.91900062561035,-204.14700317382812 8.17300033569336,-203.28399658203125z"/><path stroke-linecap="round" stroke-linejoin="round" fill-opacity="0" stroke="rgb(53,47,32)" stroke-opacity="1" stroke-width="9.03927999999999" d=" M8.17300033569336,-203.28399658203125 C11.475000381469727,-201.33599853515625 1.7970000505447388,-199.88600158691406 6.419000148773193,-196.38900756835938 C25.958999633789062,-181.6060028076172 93.06500244140625,-172.36199951171875 118.3550033569336,-156.31399536132812 C126.02100372314453,-151.4499969482422 115.34100341796875,-160.19200134277344 121.80699920654297,-157.7689971923828 C123.1729965209961,-163.42300415039062 18.91900062561035,-204.14700317382812 8.17300033569336,-203.28399658203125z"/></g></g><g transform="matrix(0.9999989867210388,0,0,0.9999989867210388,268.9992370605469,-21.433818817138672)" opacity="1" style="display: none;"><g opacity="1" transform="matrix(1,0,0,1,0,0)"><path fill="rgb(255,139,0)" fill-opacity="1" d=" M-88.875,104.45099639892578 C-88.875,104.45099639892578 -99.78099822998047,110.81099700927734 -99.78099822998047,110.81099700927734 C-99.78099822998047,110.81099700927734 -112.21299743652344,109.25700378417969 -112.21299743652344,109.25700378417969 C-112.21299743652344,109.25700378417969 -125.01799774169922,107.65699768066406 -125.01799774169922,107.65699768066406 C-125.01799774169922,107.65699768066406 -129.8979949951172,108.38999938964844 -135.64599609375,109.98799896240234 C-139.13099670410156,110.95700073242188 -142.93499755859375,112.24400329589844 -146.16400146484375,113.87999725341797 C-149.3090057373047,115.4729995727539 -151.90899658203125,117.39600372314453 -153.13800048828125,119.677001953125 C-155.58999633789062,124.22699737548828 -67.14299774169922,119.48400115966797 -34.5620002746582,113.74400329589844 C-18.68600082397461,110.9469985961914 -20.424999237060547,107.88500213623047 -24.709999084472656,105.72899627685547 C-28.0310001373291,104.05799865722656 -32.880001068115234,102.93099975585938 -32.24300003051758,102.89299774169922 C-30.746999740600586,102.80500030517578 -37.41899871826172,104.33200073242188 -44.82500076293945,105.95600128173828 C-52.981998443603516,107.74500274658203 -62.02799987792969,109.65299987792969 -62.02799987792969,109.65299987792969 C-62.02799987792969,109.65299987792969 -74.18199920654297,107.2979965209961 -74.18199920654297,107.2979965209961 C-74.18199920654297,107.2979965209961 -81.77999877929688,105.82599639892578 -81.77999877929688,105.82599639892578 C-81.77999877929688,105.82599639892578 -88.875,104.45099639892578 -88.875,104.45099639892578z"/><path stroke-linecap="round" stroke-linejoin="round" fill-opacity="0" stroke="rgb(255,140,0)" stroke-opacity="1" stroke-width="5" d=" M-88.875,104.45099639892578 C-88.875,104.45099639892578 -99.78099822998047,110.81099700927734 -99.78099822998047,110.81099700927734 C-99.78099822998047,110.81099700927734 -112.21299743652344,109.25700378417969 -112.21299743652344,109.25700378417969 C-112.21299743652344,109.25700378417969 -125.01799774169922,107.65699768066406 -125.01799774169922,107.65699768066406 C-125.01799774169922,107.65699768066406 -129.8979949951172,108.38999938964844 -135.64599609375,109.98799896240234 C-139.13099670410156,110.95700073242188 -142.93499755859375,112.24400329589844 -146.16400146484375,113.87999725341797 C-149.3090057373047,115.4729995727539 -151.90899658203125,117.39600372314453 -153.13800048828125,119.677001953125 C-155.58999633789062,124.22699737548828 -67.14299774169922,119.48400115966797 -34.5620002746582,113.74400329589844 C-18.68600082397461,110.9469985961914 -20.424999237060547,107.88500213623047 -24.709999084472656,105.72899627685547 C-28.0310001373291,104.05799865722656 -32.880001068115234,102.93099975585938 -32.24300003051758,102.89299774169922 C-30.746999740600586,102.80500030517578 -37.41899871826172,104.33200073242188 -44.82500076293945,105.95600128173828 C-52.981998443603516,107.74500274658203 -62.02799987792969,109.65299987792969 -62.02799987792969,109.65299987792969 C-62.02799987792969,109.65299987792969 -74.18199920654297,107.2979965209961 -74.18199920654297,107.2979965209961 C-74.18199920654297,107.2979965209961 -81.77999877929688,105.82599639892578 -81.77999877929688,105.82599639892578 C-81.77999877929688,105.82599639892578 -88.875,104.45099639892578 -88.875,104.45099639892578z"/></g></g><g transform="matrix(0,0,0,0,182.03330993652344,98.23804473876953)" opacity="1" style="display: none;"><g opacity="1" transform="matrix(1,0,0,1,0,0)"><path fill="rgb(255,140,0)" fill-opacity="1" d=" M-86.5,64 C-100,85 -97.5,102.5 -89.5,116.5 C-81.5,130.5 -69.5,86 -86.5,64z"/><path stroke-linecap="butt" stroke-linejoin="miter" fill-opacity="0" stroke-miterlimit="4" stroke="rgb(255,140,0)" stroke-opacity="1" stroke-width="16" d=" M-86.5,64 C-100,85 -97.5,102.5 -89.5,116.5 C-81.5,130.5 -69.5,86 -86.5,64z"/></g></g><g transform="matrix(0,0,0,0,167.0333251953125,94.2380599975586)" opacity="1" style="display: none;"><g opacity="1" transform="matrix(1,0,0,1,0,0)"><path fill="rgb(255,140,0)" fill-opacity="1" d=" M-86.5,64 C-100,85 -97.5,102.5 -89.5,116.5 C-81.5,130.5 -69.5,86 -86.5,64z"/><path stroke-linecap="butt" stroke-linejoin="miter" fill-opacity="0" stroke-miterlimit="4" stroke="rgb(255,140,0)" stroke-opacity="1" stroke-width="16" d=" M-86.5,64 C-100,85 -97.5,102.5 -89.5,116.5 C-81.5,130.5 -69.5,86 -86.5,64z"/></g></g><g transform="matrix(0,0,0,0,203.53329467773438,102.3740234375)" opacity="1" style="display: none;"><g opacity="1" transform="matrix(1,0,0,1,0,0)"><path fill="rgb(255,140,0)" fill-opacity="1" d=" M-86.5,64 C-100,85 -97.5,102.5 -89.5,116.5 C-81.5,130.5 -69.5,86 -86.5,64z"/><path stroke-linecap="butt" stroke-linejoin="miter" fill-opacity="0" stroke-miterlimit="4" stroke="rgb(255,140,0)" stroke-opacity="1" stroke-width="16" d=" M-86.5,64 C-100,85 -97.5,102.5 -89.5,116.5 C-81.5,130.5 -69.5,86 -86.5,64z"/></g></g><g transform="matrix(0.9195327758789062,-0.3930108845233917,0.3930108845233917,0.9195327758789062,191.9989013671875,275.478271484375)" opacity="1" style="display: none;"><g opacity="1" transform="matrix(1,0,0,1,0,0)"><path stroke-linecap="round" stroke-linejoin="round" fill-opacity="0" stroke-dasharray=" 1 20" stroke-dashoffset="0" stroke="rgb(53,47,32)" stroke-opacity="1" stroke-width="10" d=" M53.97100067138672,-185.92599487304688 C54.643001556396484,-185.49600219726562 54.696998596191406,-186.13900756835938 55.823001861572266,-185.75900268554688 C62.6510009765625,-183.4530029296875 70.26799774169922,-180.86300659179688 75.41500091552734,-177.3209991455078 C76.9749984741211,-176.2469940185547 75.78199768066406,-176.4149932861328 77.0979995727539,-175.8800048828125 C77.3759994506836,-177.1280059814453 56.15800094604492,-186.11599731445312 53.97100067138672,-185.92599487304688z"/></g></g><g transform="matrix(-0.00012789883476216346,-0.000042276013118680567,-0.000050731217925203964,0.0001534785988042131,180.07672119140625,399.1000671386719)" opacity="1" style="display: none;"><g opacity="1" transform="matrix(1,0,0,1,0,0)"><path fill="rgb(255,255,255)" fill-opacity="1" d=" M123.9280014038086,-49.70000076293945 C113.69599914550781,-42.05799865722656 106.80699920654297,-27.788999557495117 106.80699920654297,-11.434000015258789 C106.80699920654297,4.921000003814697 113.69599914550781,19.190000534057617 123.9280014038086,26.832000732421875 C134.16000366210938,19.190000534057617 141.04800415039062,4.921000003814697 141.04800415039062,-11.434000015258789 C141.04800415039062,-27.788999557495117 134.16000366210938,-42.05799865722656 123.9280014038086,-49.70000076293945z"/><path stroke-linecap="butt" stroke-linejoin="miter" fill-opacity="0" stroke-miterlimit="10" stroke="rgb(167,246,255)" stroke-opacity="1" stroke-width="10" d=" M123.9280014038086,-49.70000076293945 C113.69599914550781,-42.05799865722656 106.80699920654297,-27.788999557495117 106.80699920654297,-11.434000015258789 C106.80699920654297,4.921000003814697 113.69599914550781,19.190000534057617 123.9280014038086,26.832000732421875 C134.16000366210938,19.190000534057617 141.04800415039062,4.921000003814697 141.04800415039062,-11.434000015258789 C141.04800415039062,-27.788999557495117 134.16000366210938,-42.05799865722656 123.9280014038086,-49.70000076293945z"/></g><g opacity="1" transform="matrix(1,0,0,1,0,0)"><path fill="rgb(167,246,255)" fill-opacity="1" d=" M123.9280014038086,-16.05500030517578 C118.19400024414062,-11.772000312805176 114.33399963378906,-3.7760000228881836 114.33399963378906,5.388999938964844 C114.33399963378906,14.553999900817871 118.19400024414062,22.548999786376953 123.9280014038086,26.832000732421875 C129.66200256347656,22.548999786376953 133.52200317382812,14.553999900817871 133.52200317382812,5.388999938964844 C133.52200317382812,-3.7760000228881836 129.66200256347656,-11.772000312805176 123.9280014038086,-16.05500030517578z"/></g></g><g transform="matrix(-0.75,0.00005981294816592708,0.00005981294816592708,0.75,169.3038787841797,402.2604064941406)" opacity="1" style="display: none;"><g opacity="1" transform="matrix(1,0,0,1,0,0)"><path stroke-linecap="round" stroke-linejoin="round" fill-opacity="0" stroke="rgb(0,0,0)" stroke-opacity="1" stroke-width="10" d=" M52.0359992980957,-1.8339999914169312 C52.0359992980957,3.4679999351501465 47.737998962402344,7.764999866485596 42.43600082397461,7.764999866485596 C37.13399887084961,7.764999866485596 32.83700180053711,3.4679999351501465 32.83700180053711,-1.8339999914169312 C32.83700180053711,-7.136000156402588 37.13399887084961,-11.434000015258789 42.43600082397461,-11.434000015258789 C47.737998962402344,-11.434000015258789 52.0359992980957,-7.136000156402588 52.0359992980957,-1.8339999914169312z"/></g><g opacity="1" transform="matrix(1,0,0,1,0,0)"><path fill="rgb(204,203,203)" fill-opacity="1" d=" M34.025001525878906,12.95199966430664 C34.025001525878906,12.95199966430664 0,12.95199966430664 0,12.95199966430664 C0,12.95199966430664 0,-16.621000289916992 0,-16.621000289916992 C0,-16.621000289916992 34.025001525878906,-16.621000289916992 34.025001525878906,-16.621000289916992 C34.025001525878906,-16.621000289916992 34.025001525878906,12.95199966430664 34.025001525878906,12.95199966430664z"/><path stroke-linecap="round" stroke-linejoin="round" fill-opacity="0" stroke="rgb(128,128,128)" stroke-opacity="1" stroke-width="10" d=" M34.025001525878906,12.95199966430664 C34.025001525878906,12.95199966430664 0,12.95199966430664 0,12.95199966430664 C0,12.95199966430664 0,-16.621000289916992 0,-16.621000289916992 C0,-16.621000289916992 34.025001525878906,-16.621000289916992 34.025001525878906,-16.621000289916992 C34.025001525878906,-16.621000289916992 34.025001525878906,12.95199966430664 34.025001525878906,12.95199966430664z"/></g><g opacity="1" transform="matrix(1,0,0,1,0,0)"><path fill="rgb(128,128,128)" fill-opacity="1" d=" M11.244000434875488,-6.763000011444092 C11.244000434875488,-6.763000011444092 11.244000434875488,-0.25699999928474426 11.244000434875488,-0.25699999928474426"/><path stroke-linecap="round" stroke-linejoin="round" fill-opacity="0" stroke="rgb(255,255,255)" stroke-opacity="1" stroke-width="10" d=" M11.244000434875488,-6.763000011444092 C11.244000434875488,-6.763000011444092 11.244000434875488,-0.25699999928474426 11.244000434875488,-0.25699999928474426"/></g></g><g transform="matrix(-0.75,0.00005981294816592708,0.00005981294816592708,0.75,153.9619598388672,431.5603942871094)" opacity="1" style="display: none;"><g opacity="1" transform="matrix(1,0,0,1,0,0)"><path fill="rgb(128,128,128)" fill-opacity="1" d=" M-32.46200180053711,-26.014999389648438 C-32.46200180053711,-26.014999389648438 -32.46200180053711,8.199000358581543 -32.46200180053711,8.199000358581543 C-32.46200180053711,18.038000106811523 -24.486000061035156,26.014999389648438 -14.647000312805176,26.014999389648438 C-14.647000312805176,26.014999389648438 14.647000312805176,26.014999389648438 14.647000312805176,26.014999389648438 C24.486000061035156,26.014999389648438 32.46200180053711,18.038000106811523 32.46200180053711,8.199000358581543 C32.46200180053711,8.199000358581543 32.46200180053711,-26.014999389648438 32.46200180053711,-26.014999389648438 C32.46200180053711,-26.014999389648438 -32.46200180053711,-26.014999389648438 -32.46200180053711,-26.014999389648438z"/><path stroke-linecap="round" stroke-linejoin="round" fill-opacity="0" stroke="rgb(78,77,77)" stroke-opacity="1" stroke-width="10" d=" M-32.46200180053711,-26.014999389648438 C-32.46200180053711,-26.014999389648438 -32.46200180053711,8.199000358581543 -32.46200180053711,8.199000358581543 C-32.46200180053711,18.038000106811523 -24.486000061035156,26.014999389648438 -14.647000312805176,26.014999389648438 C-14.647000312805176,26.014999389648438 14.647000312805176,26.014999389648438 14.647000312805176,26.014999389648438 C24.486000061035156,26.014999389648438 32.46200180053711,18.038000106811523 32.46200180053711,8.199000358581543 C32.46200180053711,8.199000358581543 32.46200180053711,-26.014999389648438 32.46200180053711,-26.014999389648438 C32.46200180053711,-26.014999389648438 -32.46200180053711,-26.014999389648438 -32.46200180053711,-26.014999389648438z"/></g></g><g transform="matrix(-0.75,0.00005981294816592708,0.00005981294816592708,0.75,167.7759552001953,428.3095397949219)" opacity="1" style="display: none;"><g opacity="1" transform="matrix(1,0,0,1,0,0)"><path fill="rgb(128,128,128)" fill-opacity="1" d=" M0,-10.505999565124512 C0,-10.505999565124512 0,10.505999565124512 0,10.505999565124512"/><path stroke-linecap="round" stroke-linejoin="round" fill-opacity="0" stroke="rgb(255,255,255)" stroke-opacity="1" stroke-width="10" d=" M0,-10.505999565124512 C0,-10.505999565124512 0,10.505999565124512 0,10.505999565124512"/></g></g><g transform="matrix(-0.75,0.00005981294816592708,0.00005981294816592708,0.75,153.9594268798828,399.7093811035156)" opacity="1" style="display: none;"><g opacity="1" transform="matrix(1,0,0,1,0,0)"><path fill="rgb(78,77,77)" fill-opacity="1" d=" M-32.46200180053711,1.3619999885559082 C-32.46200180053711,1.3619999885559082 -32.46200180053711,16.452999114990234 -32.46200180053711,16.452999114990234 C-32.46200180053711,16.452999114990234 -29.386999130249023,16.452999114990234 -29.386999130249023,16.452999114990234 C-29.386999130249023,16.452999114990234 32.46200180053711,16.452999114990234 32.46200180053711,16.452999114990234 C32.46200180053711,16.452999114990234 32.46200180053711,1.3619999885559082 32.46200180053711,1.3619999885559082 C32.46200180053711,-8.47700023651123 -32.46200180053711,-8.47700023651123 -32.46200180053711,1.3619999885559082z"/><path stroke-linecap="round" stroke-linejoin="round" fill-opacity="0" stroke="rgb(78,77,77)" stroke-opacity="1" stroke-width="10" d=" M-32.46200180053711,1.3619999885559082 C-32.46200180053711,1.3619999885559082 -32.46200180053711,16.452999114990234 -32.46200180053711,16.452999114990234 C-32.46200180053711,16.452999114990234 -29.386999130249023,16.452999114990234 -29.386999130249023,16.452999114990234 C-29.386999130249023,16.452999114990234 32.46200180053711,16.452999114990234 32.46200180053711,16.452999114990234 C32.46200180053711,16.452999114990234 32.46200180053711,1.3619999885559082 32.46200180053711,1.3619999885559082 C32.46200180053711,-8.47700023651123 -32.46200180053711,-8.47700023651123 -32.46200180053711,1.3619999885559082z"/></g></g><g transform="matrix(-0.75,0.00005981294816592708,0.00005981294816592708,0.75,153.9594268798828,399.7093811035156)" opacity="1" style="display: none;"><g opacity="1" transform="matrix(1,0,0,1,0,0)"><path fill="rgb(128,128,128)" fill-opacity="1" d=" M14.647000312805176,-16.452999114990234 C14.647000312805176,-16.452999114990234 -14.647000312805176,-16.452999114990234 -14.647000312805176,-16.452999114990234 C-24.486000061035156,-16.452999114990234 -32.46200180053711,-8.47700023651123 -32.46200180053711,1.3619999885559082 C-32.46200180053711,1.3619999885559082 -32.46200180053711,16.452999114990234 -32.46200180053711,16.452999114990234 C-32.46200180053711,16.452999114990234 -29.386999130249023,16.452999114990234 -29.386999130249023,16.452999114990234 C-29.386999130249023,16.452999114990234 32.46200180053711,16.452999114990234 32.46200180053711,16.452999114990234 C32.46200180053711,16.452999114990234 32.46200180053711,1.3619999885559082 32.46200180053711,1.3619999885559082 C32.46200180053711,-8.47700023651123 24.486000061035156,-16.452999114990234 14.647000312805176,-16.452999114990234z"/><path stroke-linecap="round" stroke-linejoin="round" fill-opacity="0" stroke="rgb(78,77,77)" stroke-opacity="1" stroke-width="10" d=" M14.647000312805176,-16.452999114990234 C14.647000312805176,-16.452999114990234 -14.647000312805176,-16.452999114990234 -14.647000312805176,-16.452999114990234 C-24.486000061035156,-16.452999114990234 -32.46200180053711,-8.47700023651123 -32.46200180053711,1.3619999885559082 C-32.46200180053711,1.3619999885559082 -32.46200180053711,16.452999114990234 -32.46200180053711,16.452999114990234 C-32.46200180053711,16.452999114990234 -29.386999130249023,16.452999114990234 -29.386999130249023,16.452999114990234 C-29.386999130249023,16.452999114990234 32.46200180053711,16.452999114990234 32.46200180053711,16.452999114990234 C32.46200180053711,16.452999114990234 32.46200180053711,1.3619999885559082 32.46200180053711,1.3619999885559082 C32.46200180053711,-8.47700023651123 24.486000061035156,-16.452999114990234 14.647000312805176,-16.452999114990234z"/></g></g><g transform="matrix(-0.75,0.00005981294816592708,0.00005981294816592708,0.75,167.77365112304688,399.4307861328125)" opacity="1" style="display: none;"><g opacity="1" transform="matrix(1,0,0,1,0,0)"><path fill="rgb(128,128,128)" fill-opacity="1" d=" M0,-3.1089999675750732 C0,-3.1089999675750732 0,3.1089999675750732 0,3.1089999675750732"/><path stroke-linecap="round" stroke-linejoin="round" fill-opacity="0" stroke="rgb(255,255,255)" stroke-opacity="1" stroke-width="10" d=" M0,-3.1089999675750732 C0,-3.1089999675750732 0,3.1089999675750732 0,3.1089999675750732"/></g></g><g transform="matrix(0.46475157141685486,1.0114651918411255,-0.9874128699302673,0.45369988679885864,86.53105163574219,409.4767761230469)" opacity="1" style="display: block;"><g opacity="1" transform="matrix(1,0,0,1,0,0)"><path fill="rgb(254,216,32)" fill-opacity="1" d=" M-9.798999786376953,-53.73899841308594 C2.632999897003174,-62.0260009765625 32.74100112915039,-71.68699645996094 59.49300003051758,-56.60100173950195 C76.97000122070312,-46.744998931884766 77.22699737548828,-38.444000244140625 58.25,-31.89699935913086 C51.016998291015625,-29.402000427246094 34.176998138427734,-17.764999389648438 21.04400062561035,-8.956000328063965"/><path stroke-linecap="round" stroke-linejoin="round" fill-opacity="0" stroke="rgb(250,144,22)" stroke-opacity="1" stroke-width="9.091" d=" M-9.798999786376953,-53.73899841308594 C2.632999897003174,-62.0260009765625 32.74100112915039,-71.68699645996094 59.49300003051758,-56.60100173950195 C76.97000122070312,-46.744998931884766 77.22699737548828,-38.444000244140625 58.25,-31.89699935913086 C51.016998291015625,-29.402000427246094 34.176998138427734,-17.764999389648438 21.04400062561035,-8.956000328063965"/></g></g><g transform="matrix(0.7189238667488098,-0.818175733089447,0.8216347098350525,0.7480033040046692,99.22735595703125,530.7821044921875)" opacity="1" style="display: block;"><g opacity="1" transform="matrix(0.9776366353034973,-0.21030113101005554,0.21030113101005554,0.9776366353034973,0,0)"><path stroke-linecap="round" stroke-linejoin="round" fill-opacity="0" stroke="rgb(252,238,33)" stroke-opacity="1" stroke-width="8.869" d=" M102.29499816894531,-35.12300109863281 C102.63500213623047,-24.676000595092773 102.74500274658203,-15.529999732971191 97.90499877929688,0.6420000195503235"/></g></g><g transform="matrix(-0.195135697722435,1.0654062032699585,1.0984859466552734,0.20119443535804749,323.51446533203125,403.9441223144531)" opacity="1" style="display: block;"><g opacity="1" transform="matrix(1,0,0,1,0,0)"><path fill="rgb(254,216,32)" fill-opacity="1" d=" M-25.58300018310547,-13.378000259399414 C-4.964000225067139,-21.66900062561035 26.378000259399414,-21.016000747680664 49.095001220703125,-19.12299919128418 C75.97799682617188,-16.881999969482422 59.06999969482422,0.11500000208616257 44.56100082397461,8.701000213623047 C28.190000534057617,18.388999938964844 15.67300033569336,25.863000869750977 -2.499000072479248,39.33300018310547"/><path stroke-linecap="round" stroke-linejoin="round" fill-opacity="0" stroke="rgb(250,144,22)" stroke-opacity="1" stroke-width="9.091" d=" M-25.58300018310547,-13.378000259399414 C-4.964000225067139,-21.66900062561035 26.378000259399414,-21.016000747680664 49.095001220703125,-19.12299919128418 C75.97799682617188,-16.881999969482422 59.06999969482422,0.11500000208616257 44.56100082397461,8.701000213623047 C28.190000534057617,18.388999938964844 15.67300033569336,25.863000869750977 -2.499000072479248,39.33300018310547"/></g></g><g transform="matrix(0.735185444355011,-0.8182308077812195,0.8379977941513062,0.7131766080856323,253.6061248779297,522.8555297851562)" opacity="1" style="display: block;"><g opacity="1" transform="matrix(0.9776366353034973,-0.21030113101005554,0.21030113101005554,0.9776366353034973,0,0)"><path stroke-linecap="round" stroke-linejoin="round" fill-opacity="0" stroke="rgb(255,255,255)" stroke-opacity="1" stroke-width="8.869" d=" M95.63200378417969,11.595000267028809 C111.8740005493164,13.180999755859375 123.98600006103516,16.732999801635742 135.81700134277344,21.7189998626709"/></g></g><g transform="matrix(0.9195327758789062,-0.3930108845233917,0.3930108845233917,0.9195327758789062,95.39167785644531,380.4488830566406)" opacity="1" style="display: block;"><g opacity="1" transform="matrix(1,0,0,1,0,0)"><path fill="rgb(255,250,202)" fill-opacity="1" d=" M47.35634994506836,-43.6665153503418 C36.02188491821289,-56.56776809692383 20.66158103942871,-71.3465576171875 7.8065314292907715,-87.32453918457031 C5.781013011932373,-53.950130462646484 -12.425289154052734,12.49693775177002 -22.586246490478516,38.42993927001953 C-15.541460037231445,49.788875579833984 -0.26303228735923767,70.47040557861328 11.613423347473145,85.83311462402344 C19.491655349731445,67.94287872314453 50.13096618652344,-17.973468780517578 47.35634994506836,-43.6665153503418z"/><path stroke-linecap="round" stroke-linejoin="round" fill-opacity="0" stroke="rgb(188,168,113)" stroke-opacity="1" stroke-width="10" d=" M47.35634994506836,-43.6665153503418 C36.02188491821289,-56.56776809692383 20.66158103942871,-71.3465576171875 7.8065314292907715,-87.32453918457031 C5.781013011932373,-53.950130462646484 -12.425289154052734,12.49693775177002 -22.586246490478516,38.42993927001953 C-15.541460037231445,49.788875579833984 -0.26303228735923767,70.47040557861328 11.613423347473145,85.83311462402344 C19.491655349731445,67.94287872314453 50.13096618652344,-17.973468780517578 47.35634994506836,-43.6665153503418z"/></g></g><g style="display: none;"><g><path stroke-linecap="round" stroke-linejoin="round" fill-opacity="0"/></g></g><g style="display: none;"><g><path stroke-linecap="round" stroke-linejoin="round" fill-opacity="0"/></g></g></g></g></svg>