<svg xmlns="http://www.w3.org/2000/svg" viewBox="0 0 512 512" width="512" height="512" preserveAspectRatio="xMidYMid meet" style="width: 100%; height: 100%; transform: translate3d(0px, 0px, 0px); content-visibility: visible;"><defs><clipPath id="__lottie_element_2"><rect width="512" height="512" x="0" y="0"/></clipPath><clipPath id="__lottie_element_4"><path d="M0,0 L512,0 L512,512 L0,512z"/></clipPath><clipPath id="__lottie_element_9"><path d="M0,0 L512,0 L512,512 L0,512z"/></clipPath><clipPath id="__lottie_element_13"><path d="M0,0 L512,0 L512,512 L0,512z"/></clipPath><clipPath id="__lottie_element_103"><path d="M0,0 L512,0 L512,512 L0,512z"/></clipPath><clipPath id="__lottie_element_110"><path d="M0,0 L512,0 L512,512 L0,512z"/></clipPath><clipPath id="__lottie_element_115"><path d="M0,0 L512,0 L512,512 L0,512z"/></clipPath><clipPath id="__lottie_element_119"><path d="M0,0 L512,0 L512,512 L0,512z"/></clipPath><clipPath id="__lottie_element_206"><path d="M0,0 L512,0 L512,512 L0,512z"/></clipPath><clipPath id="__lottie_element_222"><path d="M0,0 L512,0 L512,512 L0,512z"/></clipPath></defs><g clip-path="url(#__lottie_element_2)"><g clip-path="url(#__lottie_element_110)" transform="matrix(1,0,0,1,0,0)" opacity="1" style="display: block;"><g clip-path="url(#__lottie_element_206)" transform="matrix(1.0499999523162842,0,0,0.8500000238418579,-32.79998779296875,83.39999389648438)" opacity="1" style="display: block;"><g transform="matrix(1.5005649328231812,0,0,1.5005649328231812,-7.20819091796875,337.455078125)" opacity="1" style="display: block;"><g opacity="1" transform="matrix(1,0,0,1,176.4949951171875,64.81999969482422)"><path stroke-linecap="round" stroke-linejoin="round" fill-opacity="0" stroke="rgb(3,180,255)" stroke-opacity="1" stroke-width="0.021026629851236933" d=" M151.4949951171875,0 C151.4949951171875,21.992000579833984 83.66899871826172,39.81999969482422 0.0010000000474974513,39.81999969482422 C-83.66699981689453,39.81999969482422 -151.49400329589844,21.992000579833984 -151.49400329589844,0 C-151.49400329589844,-21.992000579833984 -83.66699981689453,-39.81999969482422 0.0010000000474974513,-39.81999969482422 C83.66899871826172,-39.81999969482422 151.4949951171875,-21.992000579833984 151.4949951171875,0z"/></g></g></g><g clip-path="url(#__lottie_element_222)" transform="matrix(1.0499999523162842,0,0,0.8500000238418579,2.20001220703125,83.39999389648438)" opacity="1" style="display: block;"><g transform="matrix(0.664367139339447,0,0,0.664367139339447,140.37652587890625,388.7431640625)" opacity="1" style="display: block;"><g opacity="1" transform="matrix(1,0,0,1,176.4949951171875,64.81999969482422)"><path stroke-linecap="round" stroke-linejoin="round" fill-opacity="0" stroke="rgb(3,180,255)" stroke-opacity="1" stroke-width="0.6491714154349582" d=" M151.4949951171875,0 C151.4949951171875,21.992000579833984 83.66899871826172,39.81999969482422 0.0010000000474974513,39.81999969482422 C-83.66699981689453,39.81999969482422 -151.49400329589844,21.992000579833984 -151.49400329589844,0 C-151.49400329589844,-21.992000579833984 -83.66699981689453,-39.81999969482422 0.0010000000474974513,-39.81999969482422 C83.66899871826172,-39.81999969482422 151.4949951171875,-21.992000579833984 151.4949951171875,0z"/></g></g></g><g clip-path="url(#__lottie_element_115)" transform="matrix(1.0499999523162842,0,0,0.8500000238418579,2.20001220703125,83.39999389648438)" opacity="1" style="display: none;"><g transform="matrix(1.5022599697113037,0,0,1.5022599697113037,-7.507354736328125,337.35150146484375)" opacity="1" style="display: none;"><g opacity="1" transform="matrix(1,0,0,1,176.4949951171875,64.81999969482422)"><path stroke-linecap="round" stroke-linejoin="round" fill-opacity="0" stroke="rgb(3,180,255)" stroke-opacity="1" stroke-width="0" d=" M151.4949951171875,0 C151.4949951171875,21.992000579833984 83.66899871826172,39.81999969482422 0.0010000000474974513,39.81999969482422 C-83.66699981689453,39.81999969482422 -151.49400329589844,21.992000579833984 -151.49400329589844,0 C-151.49400329589844,-21.992000579833984 -83.66699981689453,-39.81999969482422 0.0010000000474974513,-39.81999969482422 C83.66899871826172,-39.81999969482422 151.4949951171875,-21.992000579833984 151.4949951171875,0z"/></g></g></g><g clip-path="url(#__lottie_element_119)" transform="matrix(1.0499999523162842,0,0,0.8500000238418579,-32.79998779296875,83.39999389648438)" opacity="1" style="display: none;"><g transform="matrix(1.5022599697113037,0,0,1.5022599697113037,-7.507354736328125,337.35150146484375)" opacity="1" style="display: none;"><g opacity="1" transform="matrix(1,0,0,1,176.4949951171875,64.81999969482422)"><path stroke-linecap="round" stroke-linejoin="round" fill-opacity="0" stroke="rgb(3,180,255)" stroke-opacity="1" stroke-width="0" d=" M151.4949951171875,0 C151.4949951171875,21.992000579833984 83.66899871826172,39.81999969482422 0.0010000000474974513,39.81999969482422 C-83.66699981689453,39.81999969482422 -151.49400329589844,21.992000579833984 -151.49400329589844,0 C-151.49400329589844,-21.992000579833984 -83.66699981689453,-39.81999969482422 0.0010000000474974513,-39.81999969482422 C83.66899871826172,-39.81999969482422 151.4949951171875,-21.992000579833984 151.4949951171875,0z"/></g></g></g><g transform="matrix(1.0500082969665527,0,0,1.0499916076660156,261.68768310546875,361.3223571777344)" opacity="1" style="display: block;"><g opacity="1" transform="matrix(1,0,0,1,0,0)"><path fill="rgb(254,216,32)" fill-opacity="1" d=" M-16.2450008392334,104.44999694824219 C-80.10199737548828,104.44999694824219 -188.31900024414062,102.61199951171875 -179.66900634765625,25.81999969482422 C-171.2550048828125,-48.87699890136719 -106.63200378417969,-106.88500213623047 -3.944999933242798,-104.29399871826172 C78.04399871826172,-102.2249984741211 142.302001953125,-66.85600280761719 156.4810028076172,34.494998931884766 C161.22500610351562,95.63300323486328 65.30599975585938,104.44999694824219 -16.2450008392334,104.44999694824219z"/><path stroke-linecap="round" stroke-linejoin="round" fill-opacity="0" stroke="rgb(250,144,22)" stroke-opacity="1" stroke-width="10" d=" M-16.2450008392334,104.44999694824219 C-80.10199737548828,104.44999694824219 -188.31900024414062,102.61199951171875 -179.66900634765625,25.81999969482422 C-171.2550048828125,-48.87699890136719 -106.63200378417969,-106.88500213623047 -3.944999933242798,-104.29399871826172 C78.04399871826172,-102.2249984741211 142.302001953125,-66.85600280761719 156.4810028076172,34.494998931884766 C161.22500610351562,95.63300323486328 65.30599975585938,104.44999694824219 -16.2450008392334,104.44999694824219z"/></g></g><g transform="matrix(1.108718991279602,0.23335707187652588,-0.21482473611831665,1.0206360816955566,455.44635009765625,423.8841552734375)" opacity="1" style="display: block;"><g opacity="1" transform="matrix(1,0,0,1,35.6879997253418,48.13999938964844)"><path stroke-linecap="round" stroke-linejoin="round" fill-opacity="0" stroke="rgb(255,255,255)" stroke-opacity="1" stroke-width="8" d=" M-81.15499877929688,-39.130001068115234 C-79.29399871826172,-42.935001373291016 -79.53700256347656,-50.32699966430664 -81.36399841308594,-59.196998596191406"/></g></g><g transform="matrix(0.7896676063537598,0.6920457482337952,0.6920567750930786,-0.7896549701690674,435.0620422363281,324.7136535644531)" opacity="1" style="display: block;"><g opacity="1" transform="matrix(1,0,0,1,0,0)"><path fill="rgb(254,216,32)" fill-opacity="1" d=" M-59.47727584838867,-15.637489318847656 C-6.079832553863525,-3.7779147624969482 24.24275779724121,-29.242053985595703 28.53911590576172,-66.0776138305664 C32.33228302001953,-89.52946472167969 19.778833389282227,-86.3426284790039 7.3226494789123535,-70.50991821289062 C-1.7196555137634277,-59.30885696411133 -11.800955772399902,-52.8231201171875 -28.77804183959961,-51.90290451049805"/><path stroke-linecap="round" stroke-linejoin="round" fill-opacity="0" stroke="rgb(250,144,22)" stroke-opacity="1" stroke-width="10.204" d=" M-59.47727584838867,-15.637489318847656 C-6.079832553863525,-3.7779147624969482 24.24275779724121,-29.242053985595703 28.53911590576172,-66.0776138305664 C32.33228302001953,-89.52946472167969 19.778833389282227,-86.3426284790039 7.3226494789123535,-70.50991821289062 C-1.7196555137634277,-59.30885696411133 -11.800955772399902,-52.8231201171875 -28.77804183959961,-51.90290451049805"/></g></g><g transform="matrix(1.108718991279602,0.23335707187652588,-0.21482473611831665,1.0206360816955566,455.44635009765625,423.8841552734375)" opacity="1" style="display: block;"><g opacity="1" transform="matrix(1,0,0,1,35.6879997253418,48.13999938964844)"><path stroke-linecap="round" stroke-linejoin="round" fill-opacity="0" stroke="rgb(255,255,255)" stroke-opacity="1" stroke-width="8" d=" M-85.40599822998047,-97.3239974975586 C-85.76899719238281,-105.9729995727539 -92.69000244140625,-119.61699676513672 -102.05799865722656,-127.29000091552734"/></g></g><g transform="matrix(1.108718991279602,0.23335707187652588,-0.21482473611831665,1.0206360816955566,437.4460754394531,426.88397216796875)" opacity="1" style="display: block;"><g opacity="1" transform="matrix(1,0,0,1,35.6879997253418,48.13999938964844)"><path stroke-linecap="round" stroke-linejoin="round" fill-opacity="0" stroke="rgb(252,238,33)" stroke-opacity="1" stroke-width="8" d=" M-316.9259948730469,19.81599998474121 C-347.7550048828125,9.060999870300293 -347.8550109863281,-37.20800018310547 -341.6080017089844,-53.29499816894531"/></g></g><g transform="matrix(1.0714232921600342,-0.25995272397994995,0.25995689630508423,1.0714062452316284,247.7913818359375,166.33612060546875)" opacity="1" style="display: block;"><g opacity="1" transform="matrix(0.9999999403953552,-0.0002617993741296232,0.0002617993741296232,0.9999999403953552,0,0)"><path fill="rgb(254,216,32)" fill-opacity="1" d=" M-132.5919952392578,102.30699920654297 C-155.75,75.9739990234375 -166.2949981689453,42.689998626708984 -160.468994140625,6.583000183105469 C-148.0919952392578,-70.12300109863281 -66.35099792480469,-134.4080047607422 19.45400047302246,-120.56300354003906 C105.25800323486328,-106.71800231933594 162.6320037841797,-19.986000061035156 150.2550048828125,56.720001220703125 C144.41299438476562,92.92500305175781 116.54399871826172,130.0780029296875 86.64099884033203,147.6719970703125"/><path stroke-linecap="round" stroke-linejoin="round" fill-opacity="0" stroke="rgb(250,144,22)" stroke-opacity="1" stroke-width="10" d=" M-132.5919952392578,102.30699920654297 C-155.75,75.9739990234375 -166.2949981689453,42.689998626708984 -160.468994140625,6.583000183105469 C-148.0919952392578,-70.12300109863281 -66.35099792480469,-134.4080047607422 19.45400047302246,-120.56300354003906 C105.25800323486328,-106.71800231933594 162.6320037841797,-19.986000061035156 150.2550048828125,56.720001220703125 C144.41299438476562,92.92500305175781 116.54399871826172,130.0780029296875 86.64099884033203,147.6719970703125"/></g></g><g transform="matrix(1.1776673793792725,0.16850604116916656,-0.15512391924858093,1.0841068029403687,472.99200439453125,235.32809448242188)" opacity="1" style="display: block;"><g opacity="1" transform="matrix(1,0,0,1,35.6879997253418,48.13999938964844)"><path stroke-linecap="round" stroke-linejoin="round" fill-opacity="0" stroke="rgb(252,238,33)" stroke-opacity="1" stroke-width="8" d=" M-333.6940002441406,18.201000213623047 C-365.510009765625,-23.65399932861328 -351.83599853515625,-65.71099853515625 -342.7250061035156,-86.62200164794922"/></g></g><g transform="matrix(-0.6748411655426025,0.9797216057777405,-0.9019157290458679,-0.621228039264679,123.48902893066406,396.99359130859375)" opacity="1" style="display: block;"><g opacity="1" transform="matrix(1,0,0,1,35.6879997253418,48.13999938964844)"><path stroke-linecap="round" stroke-linejoin="round" fill-opacity="0" stroke="rgb(255,255,255)" stroke-opacity="1" stroke-width="8" d=" M-337.90899658203125,21.163000106811523 C-357.5880126953125,-7.644999980926514 -352.1029968261719,-67.46800231933594 -344.37200927734375,-91.24500274658203"/></g></g><g transform="matrix(1.451998233795166,-0.09498932957649231,0.08635550737380981,1.3199803829193115,39.09236145019531,353.8879089355469)" opacity="1" style="display: block;"><path stroke-linecap="butt" stroke-linejoin="miter" fill-opacity="0" stroke-miterlimit="4" stroke="rgb(0,0,0)" stroke-opacity="1" stroke-width="4.112634948353517" d=" M145.8389129638672,-122.73307800292969 C155.94593811035156,-122.92061614990234 162.74676513671875,-118.90650177001953 165.435546875,-114.42253112792969 C166.96963500976562,-112.11176300048828 166.86370849609375,-110.18700408935547 165.94082641601562,-108.53721618652344 C164.9982147216797,-106.88025665283203 163.3754119873047,-106.6125259399414 161.7516632080078,-106.9607162475586 C158.7183074951172,-106.722412109375 153.7506561279297,-108.24617767333984 145.13235473632812,-108.14253997802734 C136.2000274658203,-108.03314208984375 131.42276000976562,-105.97085571289062 128.30369567871094,-106.26264190673828 C126.4981689453125,-106.03216552734375 124.76969146728516,-106.24488067626953 123.75880432128906,-108.46072387695312 C122.70185852050781,-110.64032745361328 123.29283142089844,-112.8253173828125 125.26660919189453,-114.91329956054688 C128.47979736328125,-118.98064422607422 135.4798583984375,-122.54142761230469 145.8389129638672,-122.73307800292969z"/><g opacity="1" transform="matrix(1,0,0,1,0,0)"><path fill="rgb(0,0,0)" fill-opacity="1" d=" M145.8389129638672,-122.73307800292969 C155.94593811035156,-122.92061614990234 162.74676513671875,-118.90650177001953 165.435546875,-114.42253112792969 C166.96963500976562,-112.11176300048828 166.86370849609375,-110.18700408935547 165.94082641601562,-108.53721618652344 C164.9982147216797,-106.88025665283203 163.3754119873047,-106.6125259399414 161.7516632080078,-106.9607162475586 C158.7183074951172,-106.722412109375 153.7506561279297,-108.24617767333984 145.13235473632812,-108.14253997802734 C136.2000274658203,-108.03314208984375 131.42276000976562,-105.97085571289062 128.30369567871094,-106.26264190673828 C126.4981689453125,-106.03216552734375 124.76969146728516,-106.24488067626953 123.75880432128906,-108.46072387695312 C122.70185852050781,-110.64032745361328 123.29283142089844,-112.8253173828125 125.26660919189453,-114.91329956054688 C128.47979736328125,-118.98064422607422 135.4798583984375,-122.54142761230469 145.8389129638672,-122.73307800292969z"/></g></g><g transform="matrix(1.161598563194275,-0.07599145919084549,0.06908441334962845,1.0559842586517334,246.91720581054688,175.1106414794922)" opacity="1" style="display: block;"><g opacity="1" transform="matrix(1,0,0,1,0,0)"><path fill="rgb(9,9,9)" fill-opacity="1" d=" M-7.984429359436035,11.392826080322266 C-5.825429439544678,14.490592002868652 -1.20742928981781,15.919157981872559 2.330570697784424,14.583690643310547 C5.868570804595947,13.248224258422852 6.986570835113525,9.65412425994873 4.827570915222168,6.5563578605651855 C2.6685707569122314,3.458591938018799 -1.9494292736053467,2.0300261974334717 -5.487429141998291,3.365493059158325 C-9.025429725646973,4.7009596824646 -10.14342975616455,8.295060157775879 -7.984429359436035,11.392826080322266z"/></g></g><g transform="matrix(1.0451490879058838,-0.06837338209152222,0.08635550737380981,1.3199803829193115,252.05633544921875,339.95587158203125)" opacity="1" style="display: block;"><path stroke-linecap="butt" stroke-linejoin="miter" fill-opacity="0" stroke-miterlimit="4" stroke="rgb(0,0,0)" stroke-opacity="1" stroke-width="4.112634948353517" d=" M145.84,-122.73 C155.95,-122.92 162.75,-118.9 165.44,-114.42 C166.97,-112.11 166.87,-110.18 165.94,-108.53 C165,-106.88 163.38,-106.61 161.75,-106.96 C158.72,-106.72 153.75,-108.24 145.13,-108.14 C136.2,-108.03 131.42,-105.97 128.31,-106.26 C126.5,-106.03 124.77,-106.24 123.76,-108.46 C122.7,-110.64 123.29,-112.82 125.27,-114.91 C128.48,-118.98 135.48,-122.54 145.84,-122.73z"/><g opacity="1" transform="matrix(1,0.000017453292457503267,-0.000017453292457503267,1,0,0)"><path fill="rgb(0,0,0)" fill-opacity="1" d=" M145.8389129638672,-122.73307800292969 C155.94593811035156,-122.92061614990234 162.74676513671875,-118.90650177001953 165.435546875,-114.42253112792969 C166.96963500976562,-112.11176300048828 166.86370849609375,-110.18700408935547 165.94082641601562,-108.53721618652344 C164.9982147216797,-106.88025665283203 163.3754119873047,-106.6125259399414 161.7516632080078,-106.9607162475586 C158.7183074951172,-106.722412109375 153.7506561279297,-108.24617767333984 145.13235473632812,-108.14253997802734 C136.2000274658203,-108.03314208984375 131.42276000976562,-105.97085571289062 128.30369567871094,-106.26264190673828 C126.4981689453125,-106.03216552734375 124.76969146728516,-106.24488067626953 123.75880432128906,-108.46072387695312 C122.70185852050781,-110.64032745361328 123.29283142089844,-112.8253173828125 125.26660919189453,-114.91329956054688 C128.47979736328125,-118.98064422607422 135.4798583984375,-122.54142761230469 145.8389129638672,-122.73307800292969z"/></g></g><g transform="matrix(0.8361192941665649,-0.05469868704676628,0.06908441334962845,1.0559842586517334,398.63372802734375,165.18539428710938)" opacity="1" style="display: block;"><g opacity="1" transform="matrix(1,0,0,1,0,0)"><path fill="rgb(9,9,9)" fill-opacity="1" d=" M-7.984429359436035,11.392826080322266 C-5.825429439544678,14.490592002868652 -1.20742928981781,15.919157981872559 2.330570697784424,14.583690643310547 C5.868570804595947,13.248224258422852 6.986570835113525,9.65412425994873 4.827570915222168,6.5563578605651855 C2.6685707569122314,3.458591938018799 -1.9494292736053467,2.0300261974334717 -5.487429141998291,3.365493059158325 C-9.025429725646973,4.7009596824646 -10.14342975616455,8.295060157775879 -7.984429359436035,11.392826080322266z"/></g></g><g transform="matrix(1.1001570224761963,-0.07197197526693344,0.07197311520576477,1.1001394987106323,324.33502197265625,236.42767333984375)" opacity="1" style="display: block;"><g opacity="1" transform="matrix(1,0,0,1,0,0)"><path fill="rgb(255,93,31)" fill-opacity="1" d=" M65.9280014038086,13.965999603271484 C72.14199829101562,6.664000034332275 73.47000122070312,-0.20000000298023224 66.4209976196289,-0.9549999833106995 C70.16300201416016,-5.435999870300293 68.43399810791016,-13.711000442504883 61.69900131225586,-14.42199993133545 C25.94300079345703,-18.194000244140625 31.277999877929688,-42.893001556396484 5.821000099182129,-42.893001556396484 C-19.63599967956543,-42.893001556396484 -22.363000869750977,-18.642000198364258 -46.8390007019043,-8.081999778747559 C-54.38800048828125,-4.824999809265137 -59.84299850463867,0.7260000109672546 -61.314998626708984,6.839000225067139 C-62.78900146484375,12.961000442504883 -60.266998291015625,19.645999908447266 -51.85499954223633,25.155000686645508 C-18.950000762939453,46.70199966430664 46.694000244140625,36.56800079345703 65.9280014038086,13.965999603271484z"/><path stroke-linecap="butt" stroke-linejoin="miter" fill-opacity="0" stroke-miterlimit="10" stroke="rgb(207,53,2)" stroke-opacity="1" stroke-width="8" d=" M65.9280014038086,13.965999603271484 C72.14199829101562,6.664000034332275 73.47000122070312,-0.20000000298023224 66.4209976196289,-0.9549999833106995 C70.16300201416016,-5.435999870300293 68.43399810791016,-13.711000442504883 61.69900131225586,-14.42199993133545 C25.94300079345703,-18.194000244140625 31.277999877929688,-42.893001556396484 5.821000099182129,-42.893001556396484 C-19.63599967956543,-42.893001556396484 -22.363000869750977,-18.642000198364258 -46.8390007019043,-8.081999778747559 C-54.38800048828125,-4.824999809265137 -59.84299850463867,0.7260000109672546 -61.314998626708984,6.839000225067139 C-62.78900146484375,12.961000442504883 -60.266998291015625,19.645999908447266 -51.85499954223633,25.155000686645508 C-18.950000762939453,46.70199966430664 46.694000244140625,36.56800079345703 65.9280014038086,13.965999603271484z"/></g></g><g transform="matrix(1.1860475540161133,0.16987407207489014,-0.1698767989873886,1.1860285997390747,316.82513427734375,207.8555145263672)" opacity="1" style="display: block;"><g opacity="1" transform="matrix(1,0,0,1,24.70599937438965,22.10700035095215)"><path stroke-linecap="round" stroke-linejoin="round" fill-opacity="0" stroke="rgb(255,180,132)" stroke-opacity="1" stroke-width="8" d=" M29.71500015258789,-14.989999771118164 C18.702999114990234,-14.293000221252441 -0.10300000011920929,-19.229000091552734 -9.062999725341797,-31.180999755859375"/></g></g><g transform="matrix(1.1001570224761963,-0.07197197526693344,0.07197311520576477,1.1001394987106323,325.3873291015625,252.51280212402344)" opacity="1" style="display: block;"><g opacity="1" transform="matrix(1,0,0,1,0,0)"><path stroke-linecap="round" stroke-linejoin="round" fill-opacity="0" stroke="rgb(125,9,9)" stroke-opacity="1" stroke-width="7.2" d=" M-40.029998779296875,-3.1070001125335693 C-3.799999952316284,9.737000465393066 48.696998596191406,-2.263000011444092 67.48500061035156,-15.880000114440918"/></g></g><g transform="matrix(1,0,0,1,256,256)" opacity="1" style="display: block;"/><g transform="matrix(0.5758563280105591,1.2722429037094116,-1.2722429037094116,0.5758563280105591,211.06826782226562,268.9230041503906)" opacity="1" style="display: block;"><g opacity="1" transform="matrix(1,0,0,1,0,0)"><path fill="rgb(255,255,255)" fill-opacity="1" d=" M-43.66899871826172,20.232999801635742 C-43.66899871826172,20.232999801635742 40.120296478271484,-43.261226654052734 40.120296478271484,-43.261226654052734 C40.120296478271484,-43.261226654052734 -15.062000274658203,46.178001403808594 -15.062000274658203,46.178001403808594 C-15.062000274658203,46.178001403808594 -43.66899871826172,20.232999801635742 -43.66899871826172,20.232999801635742z"/><path stroke-linecap="round" stroke-linejoin="round" fill-opacity="0" stroke="rgb(134,177,196)" stroke-opacity="1" stroke-width="7" d=" M-43.66899871826172,20.232999801635742 C-43.66899871826172,20.232999801635742 40.120296478271484,-43.261226654052734 40.120296478271484,-43.261226654052734 C40.120296478271484,-43.261226654052734 -15.062000274658203,46.178001403808594 -15.062000274658203,46.178001403808594 C-15.062000274658203,46.178001403808594 -43.66899871826172,20.232999801635742 -43.66899871826172,20.232999801635742z"/></g></g><g transform="matrix(0.35721537470817566,-1.3717416524887085,-1.3717637062072754,-0.3572096824645996,227.2776336669922,330.3237609863281)" opacity="1" style="display: block;"><g opacity="1" transform="matrix(1,0,0,1,0,0)"><path fill="rgb(254,216,32)" fill-opacity="1" d=" M-25.10730743408203,14.752673149108887 C-8.457603454589844,-15.307744979858398 26.10408592224121,5.958237648010254 34.21086502075195,21.085905075073242 C46.21089172363281,43.47978210449219 29.62421417236328,41.85338592529297 15.272066116333008,35.06367111206055 C6.32381534576416,30.83049201965332 -1.2756702899932861,35.73386001586914 0.47972825169563293,48.34239959716797"/><path stroke-linecap="round" stroke-linejoin="round" fill-opacity="0" stroke="rgb(250,144,22)" stroke-opacity="1" stroke-width="7.407" d=" M-25.10730743408203,14.752673149108887 C-8.457603454589844,-15.307744979858398 26.10408592224121,5.958237648010254 34.21086502075195,21.085905075073242 C46.21089172363281,43.47978210449219 29.62421417236328,41.85338592529297 15.272066116333008,35.06367111206055 C6.32381534576416,30.83049201965332 -1.2756702899932861,35.73386001586914 0.47972825169563293,48.34239959716797"/></g></g><g transform="matrix(0.4424145519733429,1.1144375801086426,-1.1595005989074707,0.4602891504764557,506.62939453125,622.8998413085938)" opacity="1" style="display: block;"><g opacity="1" transform="matrix(1,0,0,1,35.6879997253418,48.13999938964844)"><path stroke-linecap="round" stroke-linejoin="round" fill-opacity="0" stroke="rgb(255,255,255)" stroke-opacity="1" stroke-width="8.333" d=" M-354.43701171875,83.2239990234375 C-358.6059875488281,79.04499816894531 -369.2659912109375,74.45500183105469 -383.5559997558594,76.53900146484375"/></g></g><g style="display: block;" transform="matrix(0.5758563280105591,1.2722429037094116,-1.2722429037094116,0.5758563280105591,205.42922973632812,254.1583251953125)" opacity="1"><g opacity="1" transform="matrix(1,0,0,1,0,0)"><path fill="rgb(255,255,255)" fill-opacity="1" d=" M52.68291091918945,-43.864864349365234 C52.68291091918945,-43.864864349365234 -50.55060958862305,2.772571325302124 -50.55060958862305,2.772571325302124 C-50.55060958862305,2.772571325302124 -39.15769958496094,17.466732025146484 -39.15769958496094,17.466732025146484 C-39.15769958496094,17.466732025146484 -41.09696578979492,46.403228759765625 -41.09696578979492,46.403228759765625 C-41.09696578979492,46.403228759765625 52.68291091918945,-43.864864349365234 52.68291091918945,-43.864864349365234z"/><path stroke-linecap="round" stroke-linejoin="round" fill-opacity="0" stroke="rgb(134,177,196)" stroke-opacity="1" stroke-width="7" d=" M52.68291091918945,-43.864864349365234 C52.68291091918945,-43.864864349365234 -50.55060958862305,2.772571325302124 -50.55060958862305,2.772571325302124 C-50.55060958862305,2.772571325302124 -39.15769958496094,17.466732025146484 -39.15769958496094,17.466732025146484 C-39.15769958496094,17.466732025146484 -41.09696578979492,46.403228759765625 -41.09696578979492,46.403228759765625 C-41.09696578979492,46.403228759765625 52.68291091918945,-43.864864349365234 52.68291091918945,-43.864864349365234z"/></g></g><g transform="matrix(1.0499999523162842,0,0,1.0499999523162842,269.9267578125,266.7752990722656)" opacity="1" style="display: none;"><g opacity="1" transform="matrix(1,0,0,1,0,0)"><path fill="rgb(255,255,255)" fill-opacity="1" d=" M124.63664245605469,173.4507598876953 C124.63664245605469,173.4507598876953 61.47289276123047,120.59074401855469 61.47289276123047,120.59074401855469 C61.47289276123047,120.59074401855469 18.521629333496094,79.48241424560547 18.521629333496094,79.48241424560547 C18.521629333496094,79.48241424560547 72.34500122070312,60.65300750732422 72.34500122070312,60.65300750732422 C72.34500122070312,60.65300750732422 115.5822982788086,45.52648162841797 115.5822982788086,45.52648162841797 C115.5822982788086,45.52648162841797 119.3123779296875,103.13270568847656 119.3123779296875,103.13270568847656 C119.3123779296875,103.13270568847656 124.63664245605469,173.4507598876953 124.63664245605469,173.4507598876953z"/><path stroke-linecap="round" stroke-linejoin="round" fill-opacity="0" stroke="rgb(134,177,196)" stroke-opacity="1" stroke-width="9.31" d=" M124.63664245605469,173.4507598876953 C124.63664245605469,173.4507598876953 61.47289276123047,120.59074401855469 61.47289276123047,120.59074401855469 C61.47289276123047,120.59074401855469 18.521629333496094,79.48241424560547 18.521629333496094,79.48241424560547 C18.521629333496094,79.48241424560547 72.34500122070312,60.65300750732422 72.34500122070312,60.65300750732422 C72.34500122070312,60.65300750732422 115.5822982788086,45.52648162841797 115.5822982788086,45.52648162841797 C115.5822982788086,45.52648162841797 119.3123779296875,103.13270568847656 119.3123779296875,103.13270568847656 C119.3123779296875,103.13270568847656 124.63664245605469,173.4507598876953 124.63664245605469,173.4507598876953z"/></g></g><g transform="matrix(1.0499999523162842,0,0,1.0499999523162842,268.6505126953125,266.7752990722656)" opacity="1" style="display: none;"><g opacity="1" transform="matrix(1,0,0,1,0,0)"><path fill="rgb(255,255,255)" fill-opacity="1" d=" M89.26911163330078,110.18181610107422 C89.26911163330078,110.18181610107422 89.90160369873047,78.34086608886719 89.90160369873047,78.34086608886719 C89.90160369873047,78.34086608886719 89.76652526855469,110.67115783691406 89.76652526855469,110.67115783691406 C89.76652526855469,110.67115783691406 35.325096130371094,110.71034240722656 35.325096130371094,110.71034240722656 C35.325096130371094,110.71034240722656 29.35135269165039,130.60546875 29.35135269165039,130.60546875 C29.35135269165039,130.60546875 85.53996276855469,115.09542846679688 85.53996276855469,115.09542846679688 C85.53996276855469,115.09542846679688 130.12213134765625,102.8045883178711 130.12213134765625,102.8045883178711 C130.12213134765625,102.8045883178711 134.99551391601562,82.73374938964844 134.99551391601562,82.73374938964844 C134.99551391601562,82.73374938964844 89.26911163330078,110.18181610107422 89.26911163330078,110.18181610107422z"/><path stroke-linecap="round" stroke-linejoin="round" fill-opacity="0" stroke="rgb(134,177,196)" stroke-opacity="1" stroke-width="9.31" d=" M89.26911163330078,110.18181610107422 C89.26911163330078,110.18181610107422 89.90160369873047,78.34086608886719 89.90160369873047,78.34086608886719 C89.90160369873047,78.34086608886719 89.76652526855469,110.67115783691406 89.76652526855469,110.67115783691406 C89.76652526855469,110.67115783691406 35.325096130371094,110.71034240722656 35.325096130371094,110.71034240722656 C35.325096130371094,110.71034240722656 29.35135269165039,130.60546875 29.35135269165039,130.60546875 C29.35135269165039,130.60546875 85.53996276855469,115.09542846679688 85.53996276855469,115.09542846679688 C85.53996276855469,115.09542846679688 130.12213134765625,102.8045883178711 130.12213134765625,102.8045883178711 C130.12213134765625,102.8045883178711 134.99551391601562,82.73374938964844 134.99551391601562,82.73374938964844 C134.99551391601562,82.73374938964844 89.26911163330078,110.18181610107422 89.26911163330078,110.18181610107422z"/></g></g><g transform="matrix(0.5758563280105591,1.2722429037094116,-1.2722429037094116,0.5758563280105591,226.72421264648438,255.53338623046875)" opacity="0.33" style="display: block;"><g opacity="1" transform="matrix(1,0,0,1,0,0)"><path stroke-linecap="round" stroke-linejoin="round" fill-opacity="0" stroke="rgb(134,177,196)" stroke-opacity="1" stroke-width="7" d=" M-46.62387466430664,31.37906837463379 C-46.62387466430664,31.37906837463379 45.03140640258789,-30.219566345214844 45.03140640258789,-30.219566345214844"/></g></g><g transform="matrix(1,0,0,1,256,256)" opacity="1" style="display: block;"><g opacity="1" transform="matrix(1,0,0,1,0,0)"><path stroke-linecap="round" stroke-linejoin="round" fill-opacity="0" stroke="rgb(151,190,229)" stroke-opacity="1" stroke-width="12" d="M0 0"/></g></g><g transform="matrix(1,0,0,1,256,256)" opacity="1" style="display: block;"><g opacity="1" transform="matrix(1,0,0,1,0,0)"><path stroke-linecap="round" stroke-linejoin="round" fill-opacity="0" stroke="rgb(151,190,229)" stroke-opacity="1" stroke-width="20" d="M0 0"/></g></g><g transform="matrix(1,0,0,1,256,256)" opacity="1" style="display: block;"><g opacity="1" transform="matrix(1,0,0,1,0,0)"><path stroke-linecap="round" stroke-linejoin="round" fill-opacity="0" stroke="rgb(151,190,229)" stroke-opacity="1" stroke-width="15" d="M0 0"/></g></g><g transform="matrix(1,0,0,1,238.96299743652344,274.9840087890625)" opacity="1" style="display: block;"><g opacity="1" transform="matrix(1,0,0,1,0,0)"><path stroke-linecap="round" stroke-linejoin="round" fill-opacity="0" stroke="rgb(255,255,255)" stroke-opacity="1" stroke-width="20" d="M0 0"/></g></g><g transform="matrix(1,0,0,1,286.07598876953125,262.6099853515625)" opacity="1" style="display: block;"><g opacity="1" transform="matrix(1,0,0,1,0,0)"><path stroke-linecap="round" stroke-linejoin="round" fill-opacity="0" stroke="rgb(255,255,255)" stroke-opacity="1" stroke-width="20" d="M0 0"/></g></g></g><g clip-path="url(#__lottie_element_4)" transform="matrix(1,0,0,1,0,0)" opacity="1" style="display: none;"><g clip-path="url(#__lottie_element_9)" transform="matrix(1.0499999523162842,0,0,0.8500000238418579,-32.79998779296875,83.39999389648438)" opacity="1" style="display: none;"><g transform="matrix(1.5022599697113037,0,0,1.5022599697113037,-7.507354736328125,337.35150146484375)" opacity="1" style="display: none;"><g opacity="1" transform="matrix(1,0,0,1,176.4949951171875,64.81999969482422)"><path stroke-linecap="round" stroke-linejoin="round" fill-opacity="0" stroke="rgb(3,180,255)" stroke-opacity="1" stroke-width="0" d=" M151.4949951171875,0 C151.4949951171875,21.992000579833984 83.66899871826172,39.81999969482422 0.0010000000474974513,39.81999969482422 C-83.66699981689453,39.81999969482422 -151.49400329589844,21.992000579833984 -151.49400329589844,0 C-151.49400329589844,-21.992000579833984 -83.66699981689453,-39.81999969482422 0.0010000000474974513,-39.81999969482422 C83.66899871826172,-39.81999969482422 151.4949951171875,-21.992000579833984 151.4949951171875,0z"/></g></g></g><g clip-path="url(#__lottie_element_13)" transform="matrix(1.0499999523162842,0,0,0.8500000238418579,2.20001220703125,83.39999389648438)" opacity="1" style="display: block;"><g transform="matrix(1.5022599697113037,0,0,1.5022599697113037,-7.507354736328125,337.35150146484375)" opacity="1" style="display: block;"><g opacity="1" transform="matrix(1,0,0,1,176.4949951171875,64.81999969482422)"><path stroke-linecap="round" stroke-linejoin="round" fill-opacity="0" stroke="rgb(3,180,255)" stroke-opacity="1" stroke-width="0" d=" M151.4949951171875,0 C151.4949951171875,21.992000579833984 83.66899871826172,39.81999969482422 0.0010000000474974513,39.81999969482422 C-83.66699981689453,39.81999969482422 -151.49400329589844,21.992000579833984 -151.49400329589844,0 C-151.49400329589844,-21.992000579833984 -83.66699981689453,-39.81999969482422 0.0010000000474974513,-39.81999969482422 C83.66899871826172,-39.81999969482422 151.4949951171875,-21.992000579833984 151.4949951171875,0z"/></g></g></g><g clip-path="url(#__lottie_element_103)" transform="matrix(1.0499999523162842,0,0,0.8500000238418579,-32.79998779296875,83.39999389648438)" opacity="1" style="display: block;"><g transform="matrix(1.2933155298233032,0,0,1.2933155298233032,29.370285034179688,350.24920654296875)" opacity="1" style="display: block;"><g opacity="1" transform="matrix(1,0,0,1,176.4949951171875,64.81999969482422)"><path stroke-linecap="round" stroke-linejoin="round" fill-opacity="0" stroke="rgb(3,180,255)" stroke-opacity="1" stroke-width="1.6974997361108777" d=" M151.4949951171875,0 C151.4949951171875,21.992000579833984 83.66899871826172,39.81999969482422 0.0010000000474974513,39.81999969482422 C-83.66699981689453,39.81999969482422 -151.49400329589844,21.992000579833984 -151.49400329589844,0 C-151.49400329589844,-21.992000579833984 -83.66699981689453,-39.81999969482422 0.0010000000474974513,-39.81999969482422 C83.66899871826172,-39.81999969482422 151.4949951171875,-21.992000579833984 151.4949951171875,0z"/></g></g></g><g transform="matrix(1.0499999523162842,0,0,1.0499999523162842,246.81846618652344,361.3215026855469)" opacity="1" style="display: block;"><g opacity="1" transform="matrix(1,0,0,1,0,0)"><path fill="rgb(254,216,32)" fill-opacity="1" d=" M-16.2450008392334,104.44999694824219 C-80.10199737548828,104.44999694824219 -188.31900024414062,102.61199951171875 -179.66900634765625,25.81999969482422 C-171.2550048828125,-48.87699890136719 -106.63200378417969,-106.88500213623047 -3.944999933242798,-104.29399871826172 C78.04399871826172,-102.2249984741211 142.302001953125,-66.85600280761719 156.4810028076172,34.494998931884766 C161.22500610351562,95.63300323486328 65.30599975585938,104.44999694824219 -16.2450008392334,104.44999694824219z"/><path stroke-linecap="round" stroke-linejoin="round" fill-opacity="0" stroke="rgb(250,144,22)" stroke-opacity="1" stroke-width="10" d=" M-16.2450008392334,104.44999694824219 C-80.10199737548828,104.44999694824219 -188.31900024414062,102.61199951171875 -179.66900634765625,25.81999969482422 C-171.2550048828125,-48.87699890136719 -106.63200378417969,-106.88500213623047 -3.944999933242798,-104.29399871826172 C78.04399871826172,-102.2249984741211 142.302001953125,-66.85600280761719 156.4810028076172,34.494998931884766 C161.22500610351562,95.63300323486328 65.30599975585938,104.44999694824219 -16.2450008392334,104.44999694824219z"/></g></g><g transform="matrix(1.1087099313735962,0.23335981369018555,-0.21482382714748383,1.0206440687179565,440.5755310058594,423.8839416503906)" opacity="1" style="display: block;"><g opacity="1" transform="matrix(1,0,0,1,35.6879997253418,48.13999938964844)"><path stroke-linecap="round" stroke-linejoin="round" fill-opacity="0" stroke="rgb(255,255,255)" stroke-opacity="1" stroke-width="8" d=" M-81.30500030517578,-40.10300064086914 C-79.83399963378906,-44.25199890136719 -80.24400329589844,-51.395999908447266 -81.95600128173828,-59.65700149536133"/></g></g><g transform="matrix(0.7896606922149658,0.692051887512207,0.692051887512207,-0.7896606922149658,420.19146728515625,324.712646484375)" opacity="1" style="display: block;"><g opacity="1" transform="matrix(1,0,0,1,0,0)"><path fill="rgb(254,216,32)" fill-opacity="1" d=" M-63.507999420166016,-13.868000030517578 C-42.222999572753906,-10.166000366210938 7.181000232696533,-14.321999549865723 29.934999465942383,-41.17599868774414 C46.347999572753906,-60.54600143432617 34.20600128173828,-66.38899993896484 15.170000076293945,-55.5629997253418 C3.4240000247955322,-48.88199996948242 -1.659999966621399,-44.96200180053711 -19.726999282836914,-42.85900115966797"/><path stroke-linecap="round" stroke-linejoin="round" fill-opacity="0" stroke="rgb(250,144,22)" stroke-opacity="1" stroke-width="10.204" d=" M-63.507999420166016,-13.868000030517578 C-42.222999572753906,-10.166000366210938 7.181000232696533,-14.321999549865723 29.934999465942383,-41.17599868774414 C46.347999572753906,-60.54600143432617 34.20600128173828,-66.38899993896484 15.170000076293945,-55.5629997253418 C3.4240000247955322,-48.88199996948242 -1.659999966621399,-44.96200180053711 -19.726999282836914,-42.85900115966797"/></g></g><g transform="matrix(1.1087099313735962,0.23335981369018555,-0.21482382714748383,1.0206440687179565,440.5755310058594,423.8839416503906)" opacity="1" style="display: block;"><g opacity="1" transform="matrix(1,0,0,1,35.6879997253418,48.13999938964844)"><path stroke-linecap="round" stroke-linejoin="round" fill-opacity="0" stroke="rgb(255,255,255)" stroke-opacity="1" stroke-width="8" d=" M-75.31800079345703,-90.31500244140625 C-81.1780014038086,-106.7959976196289 -86.13300323486328,-113.15499877929688 -92.90599822998047,-120.06199645996094"/></g></g><g transform="matrix(1.1087099313735962,0.23335981369018555,-0.21482382714748383,1.0206440687179565,422.57537841796875,426.8837890625)" opacity="1" style="display: block;"><g opacity="1" transform="matrix(1,0,0,1,35.6879997253418,48.13999938964844)"><path stroke-linecap="round" stroke-linejoin="round" fill-opacity="0" stroke="rgb(252,238,33)" stroke-opacity="1" stroke-width="8" d=" M-321.010009765625,18.10099983215332 C-350.37701416015625,3.5409998893737793 -347.2699890136719,-46.64500045776367 -339.7049865722656,-56.96799850463867"/></g></g><g transform="matrix(1.071414828300476,-0.25995442271232605,0.25995442271232605,1.071414828300476,232.92236328125,166.33370971679688)" opacity="1" style="display: block;"><g opacity="1" transform="matrix(0.9999999403953552,-0.0002617993741296232,0.0002617993741296232,0.9999999403953552,0,0)"><path fill="rgb(254,216,32)" fill-opacity="1" d=" M-132.5919952392578,102.30699920654297 C-155.75,75.9739990234375 -166.2949981689453,42.689998626708984 -160.468994140625,6.583000183105469 C-148.0919952392578,-70.12300109863281 -66.35099792480469,-134.4080047607422 19.45400047302246,-120.56300354003906 C105.25800323486328,-106.71800231933594 162.6320037841797,-19.986000061035156 150.2550048828125,56.720001220703125 C144.41299438476562,92.92500305175781 116.54399871826172,130.0780029296875 86.64099884033203,147.6719970703125"/><path stroke-linecap="round" stroke-linejoin="round" fill-opacity="0" stroke="rgb(250,144,22)" stroke-opacity="1" stroke-width="10" d=" M-132.5919952392578,102.30699920654297 C-155.75,75.9739990234375 -166.2949981689453,42.689998626708984 -160.468994140625,6.583000183105469 C-148.0919952392578,-70.12300109863281 -66.35099792480469,-134.4080047607422 19.45400047302246,-120.56300354003906 C105.25800323486328,-106.71800231933594 162.6320037841797,-19.986000061035156 150.2550048828125,56.720001220703125 C144.41299438476562,92.92500305175781 116.54399871826172,130.0780029296875 86.64099884033203,147.6719970703125"/></g></g><g transform="matrix(1.1776578426361084,0.16850781440734863,-0.15512306988239288,1.0841153860092163,458.1211853027344,235.32630920410156)" opacity="1" style="display: block;"><g opacity="1" transform="matrix(1,0,0,1,35.6879997253418,48.13999938964844)"><path stroke-linecap="round" stroke-linejoin="round" fill-opacity="0" stroke="rgb(252,238,33)" stroke-opacity="1" stroke-width="8" d=" M-337.0920104980469,13.479999542236328 C-366.9639892578125,-30.424999237060547 -348.8160095214844,-73.66899871826172 -340.4840087890625,-91.58399963378906"/></g></g><g transform="matrix(-0.6748361587524414,0.9797291159629822,-0.901908278465271,-0.6212332844734192,108.62092590332031,396.99298095703125)" opacity="1" style="display: block;"><g opacity="1" transform="matrix(1,0,0,1,35.6879997253418,48.13999938964844)"><path stroke-linecap="round" stroke-linejoin="round" fill-opacity="0" stroke="rgb(255,255,255)" stroke-opacity="1" stroke-width="8" d=" M-341.0190124511719,15.972999572753906 C-358.4100036621094,-17.075000762939453 -350.52398681640625,-78.94400024414062 -342.3450012207031,-96.53199768066406"/></g></g><g transform="matrix(1.4378529787063599,0.2233099788427353,-0.20300954580307007,1.3071420192718506,-64.50222778320312,310.6060791015625)" opacity="1" style="display: block;"><path stroke-linecap="butt" stroke-linejoin="miter" fill-opacity="0" stroke-miterlimit="4" stroke="rgb(0,0,0)" stroke-opacity="1" stroke-width="0" d=" M145.42599487304688,-138 C154.11500549316406,-138 161.53599548339844,-131.5800018310547 164.48800659179688,-122.53099822998047 C165.36900329589844,-119.83200073242188 165.8520050048828,-116.89800262451172 165.8520050048828,-113.83100128173828 C165.8520050048828,-110.85800170898438 165.3979949951172,-108.01000213623047 164.5679931640625,-105.37899780273438 C161.6719970703125,-96.1989974975586 154.19400024414062,-89.66200256347656 145.42599487304688,-89.66200256347656 C137.08999633789062,-89.66200256347656 129.9199981689453,-95.56999969482422 126.74500274658203,-104.04100036621094 C125.62300109863281,-107.03399658203125 125,-110.34600067138672 125,-113.83100128173828 C125,-116.7040023803711 125.42400360107422,-119.45899963378906 126.20099639892578,-122.01499938964844 C129.03500366210938,-131.3350067138672 136.572998046875,-138 145.42599487304688,-138z"/><g opacity="1" transform="matrix(1,0,0,1,0,0)"><path fill="rgb(0,0,0)" fill-opacity="1" d=" M145.42599487304688,-138 C154.11500549316406,-138 161.53599548339844,-131.5800018310547 164.48800659179688,-122.53099822998047 C165.36900329589844,-119.83200073242188 165.8520050048828,-116.89800262451172 165.8520050048828,-113.83100128173828 C165.8520050048828,-110.85800170898438 165.3979949951172,-108.01000213623047 164.5679931640625,-105.37899780273438 C161.6719970703125,-96.1989974975586 154.19400024414062,-89.66200256347656 145.42599487304688,-89.66200256347656 C137.08999633789062,-89.66200256347656 129.9199981689453,-95.56999969482422 126.74500274658203,-104.04100036621094 C125.62300109863281,-107.03399658203125 125,-110.34600067138672 125,-113.83100128173828 C125,-116.7040023803711 125.42400360107422,-119.45899963378906 126.20099639892578,-122.01499938964844 C129.03500366210938,-131.3350067138672 136.572998046875,-138 145.42599487304688,-138z"/></g></g><g transform="matrix(1.1502821445465088,0.17864802479743958,-0.16240765154361725,1.0457135438919067,177.2498016357422,181.34567260742188)" opacity="1" style="display: block;"><g opacity="1" transform="matrix(1,0,0,1,0,0)"><path fill="rgb(255,255,255)" fill-opacity="1" d=" M-6.406000137329102,3.2860000133514404 C-4.247000217437744,7.494999885559082 0.3709999918937683,9.435999870300293 3.9089999198913574,7.620999813079834 C7.447000026702881,5.806000232696533 8.5649995803833,0.9229999780654907 6.406000137329102,-3.2860000133514404 C4.247000217437744,-7.494999885559082 -0.3709999918937683,-9.435999870300293 -3.9089999198913574,-7.620999813079834 C-7.447000026702881,-5.806000232696533 -8.5649995803833,-0.9229999780654907 -6.406000137329102,3.2860000133514404z"/></g></g><g transform="matrix(1.4552569389343262,0.010972259566187859,-0.00997338630259037,1.322774887084961,120.866943359375,354.4612731933594)" opacity="1" style="display: block;"><path stroke-linecap="butt" stroke-linejoin="miter" fill-opacity="0" stroke-miterlimit="4" stroke="rgb(0,0,0)" stroke-opacity="1" stroke-width="0" d=" M145.43,-138 C154.12,-138 161.54,-131.58 164.49,-122.53 C165.37,-119.83 165.85,-116.9 165.85,-113.83 C165.85,-110.86 165.4,-108.01 164.57,-105.38 C161.67,-96.2 154.2,-89.66 145.43,-89.66 C137.09,-89.66 129.92,-95.57 126.75,-104.04 C125.62,-107.03 125,-110.34 125,-113.83 C125,-116.7 125.43,-119.46 126.2,-122.01 C129.04,-131.33 136.58,-138 145.43,-138z"/><g opacity="1" transform="matrix(1,0.000017453292457503267,-0.000017453292457503267,1,0,0)"><path fill="rgb(0,0,0)" fill-opacity="1" d=" M145.42599487304688,-138 C154.11500549316406,-138 161.53599548339844,-131.5800018310547 164.48800659179688,-122.53099822998047 C165.36900329589844,-119.83200073242188 165.8520050048828,-116.89800262451172 165.8520050048828,-113.83100128173828 C165.8520050048828,-110.85800170898438 165.3979949951172,-108.01000213623047 164.5679931640625,-105.37899780273438 C161.6719970703125,-96.1989974975586 154.19400024414062,-89.66200256347656 145.42599487304688,-89.66200256347656 C137.08999633789062,-89.66200256347656 129.9199981689453,-95.56999969482422 126.74500274658203,-104.04100036621094 C125.62300109863281,-107.03399658203125 125,-110.34600067138672 125,-113.83100128173828 C125,-116.7040023803711 125.42400360107422,-119.45899963378906 126.20099639892578,-122.01499938964844 C129.03500366210938,-131.3350067138672 136.572998046875,-138 145.42599487304688,-138z"/></g></g><g transform="matrix(1.164205551147461,0.008777813985943794,-0.007978693582117558,1.0582200288772583,341.1855163574219,191.287353515625)" opacity="1" style="display: block;"><g opacity="1" transform="matrix(1,0,0,1,0,0)"><path fill="rgb(255,255,255)" fill-opacity="1" d=" M-6.406000137329102,3.2860000133514404 C-4.247000217437744,7.494999885559082 0.3709999918937683,9.435999870300293 3.9089999198913574,7.620999813079834 C7.447000026702881,5.806000232696533 8.5649995803833,0.9229999780654907 6.406000137329102,-3.2860000133514404 C4.247000217437744,-7.494999885559082 -0.3709999918937683,-9.435999870300293 -3.9089999198913574,-7.620999813079834 C-7.447000026702881,-5.806000232696533 -8.5649995803833,-0.9229999780654907 -6.406000137329102,3.2860000133514404z"/></g></g><g transform="matrix(1.0894391536712646,0.16919860243797302,-0.16919860243797302,1.0894391536712646,239.46542358398438,258.04296875)" opacity="1" style="display: block;"><g opacity="1" transform="matrix(1,0,0,1,0,0)"><path fill="rgb(255,93,31)" fill-opacity="1" d=" M70.14800262451172,14.756999969482422 C76.125,10.479000091552734 84.87200164794922,5.083000183105469 82.75499725341797,-4.875 C80.29900360107422,-16.43000030517578 71.43900299072266,-14.038999557495117 65.49299621582031,-14.479999542236328 C29.636999130249023,-17.141000747680664 31.277999877929688,-42.893001556396484 5.821000099182129,-42.893001556396484 C-19.63599967956543,-42.893001556396484 -29.59600067138672,-7.833000183105469 -48.957000732421875,-3.186000108718872 C-56.95199966430664,-1.2669999599456787 -61.702999114990234,-1.8339999914169312 -63.439998626708984,3.9690001010894775 C-65.18000030517578,9.781000137329102 -63.106998443603516,16.344999313354492 -55.30400085449219,22.086999893188477 C-24.784000396728516,44.547000885009766 46.01599884033203,32.03099822998047 70.14800262451172,14.756999969482422z"/><path stroke-linecap="butt" stroke-linejoin="miter" fill-opacity="0" stroke-miterlimit="10" stroke="rgb(207,53,2)" stroke-opacity="1" stroke-width="8" d=" M70.14800262451172,14.756999969482422 C76.125,10.479000091552734 84.87200164794922,5.083000183105469 82.75499725341797,-4.875 C80.29900360107422,-16.43000030517578 71.43900299072266,-14.038999557495117 65.49299621582031,-14.479999542236328 C29.636999130249023,-17.141000747680664 31.277999877929688,-42.893001556396484 5.821000099182129,-42.893001556396484 C-19.63599967956543,-42.893001556396484 -29.59600067138672,-7.833000183105469 -48.957000732421875,-3.186000108718872 C-56.95199966430664,-1.2669999599456787 -61.702999114990234,-1.8339999914169312 -63.439998626708984,3.9690001010894775 C-65.18000030517578,9.781000137329102 -63.106998443603516,16.344999313354492 -55.30400085449219,22.086999893188477 C-24.784000396728516,44.547000885009766 46.01599884033203,32.03099822998047 70.14800262451172,14.756999969482422z"/></g></g><g transform="matrix(1.1206321716308594,0.42394259572029114,-0.42394259572029114,1.1206321716308594,238.35438537597656,228.52105712890625)" opacity="1" style="display: block;"><g opacity="1" transform="matrix(1,0,0,1,24.70599937438965,22.10700035095215)"><path stroke-linecap="round" stroke-linejoin="round" fill-opacity="0" stroke="rgb(255,180,132)" stroke-opacity="1" stroke-width="8" d=" M30.85099983215332,-15.085000038146973 C20.308000564575195,-13.980999946594238 1.1820000410079956,-18.57200050354004 -8.361000061035156,-30.283000946044922"/></g></g><g transform="matrix(1.0894391536712646,0.16919860243797302,-0.16919860243797302,1.0894391536712646,236.9915771484375,273.9716796875)" opacity="1" style="display: block;"><g opacity="1" transform="matrix(1,0,0,1,0,0)"><path stroke-linecap="round" stroke-linejoin="round" fill-opacity="0" stroke="rgb(125,9,9)" stroke-opacity="1" stroke-width="7.2" d=" M-43.6349983215332,-2.6389999389648438 C-7.40500020980835,10.204999923706055 48.696998596191406,-2.263000011444092 67.48500061035156,-15.880000114440918"/></g></g><g transform="matrix(1,0,0,1,256,256)" opacity="1" style="display: block;"/><g transform="matrix(1.4846383333206177,0.43856415152549744,-0.36834055185317993,1.2469156980514526,296.189697265625,214.3798370361328)" opacity="1" style="display: none;"><g opacity="1" transform="matrix(1,0,0,1,0,0)"><path fill="rgb(255,255,255)" fill-opacity="1" d=" M-43.66899871826172,20.232999801635742 C-43.66899871826172,20.232999801635742 28.124631881713867,-33.40167999267578 28.124631881713867,-33.40167999267578 C28.124631881713867,-33.40167999267578 -15.062000274658203,46.178001403808594 -15.062000274658203,46.178001403808594 C-15.062000274658203,46.178001403808594 -43.66899871826172,20.232999801635742 -43.66899871826172,20.232999801635742z"/><path stroke-linecap="round" stroke-linejoin="round" fill-opacity="0" stroke="rgb(134,177,196)" stroke-opacity="1" stroke-width="7" d=" M-43.66899871826172,20.232999801635742 C-43.66899871826172,20.232999801635742 28.124631881713867,-33.40167999267578 28.124631881713867,-33.40167999267578 C28.124631881713867,-33.40167999267578 -15.062000274658203,46.178001403808594 -15.062000274658203,46.178001403808594 C-15.062000274658203,46.178001403808594 -43.66899871826172,20.232999801635742 -43.66899871826172,20.232999801635742z"/></g></g><g transform="matrix(1.0335832834243774,-0.9700576663017273,-0.9700576663017273,-1.0335832834243774,169.575927734375,344.6920471191406)" opacity="1" style="display: block;"><g opacity="1" transform="matrix(1,0,0,1,0,0)"><path fill="rgb(254,216,32)" fill-opacity="1" d=" M-31.92099952697754,19.95800018310547 C-41.10300064086914,3.0950000286102295 -44.15700149536133,-4.771999835968018 -52.2859992980957,-21.082000732421875 C-64.31900024414062,-45.22600173950195 -46.766998291015625,-42.97999954223633 -31.746999740600586,-35.323001861572266 C-22.381999969482422,-30.548999786376953 -3.380000114440918,-16.08799934387207 4.146999835968018,-2.2209999561309814"/><path stroke-linecap="round" stroke-linejoin="round" fill-opacity="0" stroke="rgb(250,144,22)" stroke-opacity="1" stroke-width="7.407" d=" M-31.92099952697754,19.95800018310547 C-41.10300064086914,3.0950000286102295 -44.15700149536133,-4.771999835968018 -52.2859992980957,-21.082000732421875 C-64.31900024414062,-45.22600173950195 -46.766998291015625,-42.97999954223633 -31.746999740600586,-35.323001861572266 C-22.381999969482422,-30.548999786376953 -3.380000114440918,-16.08799934387207 4.146999835968018,-2.2209999561309814"/></g></g><g transform="matrix(-0.21990759670734406,1.1787109375,-1.2263532876968384,-0.22879602015018463,249.91336059570312,741.1566162109375)" opacity="1" style="display: block;"><g opacity="1" transform="matrix(1,0,0,1,35.6879997253418,48.13999938964844)"><path stroke-linecap="round" stroke-linejoin="round" fill-opacity="0" stroke="rgb(255,255,255)" stroke-opacity="1" stroke-width="8.333" d=" M-341.8299865722656,80.98600006103516 C-327.04400634765625,75.25199890136719 -305.6400146484375,74 -294.43499755859375,73.8010025024414"/></g></g><g transform="matrix(1.4846383333206177,0.43856415152549744,-0.36834055185317993,1.2469156980514526,279.6685791015625,208.5762176513672)" opacity="1" style="display: none;"><g opacity="1" transform="matrix(1,0,0,1,0,0)"><path fill="rgb(255,255,255)" fill-opacity="1" d=" M44.96540069580078,-38.34776306152344 C44.96540069580078,-38.34776306152344 -35.62529373168945,-6.007497787475586 -35.62529373168945,-6.007497787475586 C-35.62529373168945,-6.007497787475586 -34.299198150634766,13.886094093322754 -34.299198150634766,13.886094093322754 C-34.299198150634766,13.886094093322754 -47.25236129760742,49.46654510498047 -47.25236129760742,49.46654510498047 C-47.25236129760742,49.46654510498047 44.96540069580078,-38.34776306152344 44.96540069580078,-38.34776306152344z"/><path stroke-linecap="round" stroke-linejoin="round" fill-opacity="0" stroke="rgb(134,177,196)" stroke-opacity="1" stroke-width="7" d=" M44.96540069580078,-38.34776306152344 C44.96540069580078,-38.34776306152344 -35.62529373168945,-6.007497787475586 -35.62529373168945,-6.007497787475586 C-35.62529373168945,-6.007497787475586 -34.299198150634766,13.886094093322754 -34.299198150634766,13.886094093322754 C-34.299198150634766,13.886094093322754 -47.25236129760742,49.46654510498047 -47.25236129760742,49.46654510498047 C-47.25236129760742,49.46654510498047 44.96540069580078,-38.34776306152344 44.96540069580078,-38.34776306152344z"/></g></g><g transform="matrix(1.4846383333206177,0.43856415152549744,-0.36834055185317993,1.2469156980514526,295.30316162109375,194.91140747070312)" opacity="0.33" style="display: none;"><g opacity="1" transform="matrix(1,0,0,1,0,0)"><path stroke-linecap="round" stroke-linejoin="round" fill-opacity="0" stroke="rgb(134,177,196)" stroke-opacity="1" stroke-width="7" d=" M-42.712459564208984,29.242952346801758 C-42.712459564208984,29.242952346801758 35.736976623535156,-24.16399574279785 35.736976623535156,-24.16399574279785"/></g></g><g transform="matrix(1,0,0,1,256,256)" opacity="1" style="display: block;"><g opacity="1" transform="matrix(1,0,0,1,0,0)"><path stroke-linecap="round" stroke-linejoin="round" fill-opacity="0" stroke="rgb(151,190,229)" stroke-opacity="1" stroke-width="12" d="M0 0"/></g></g><g transform="matrix(1,0,0,1,256,256)" opacity="1" style="display: block;"><g opacity="1" transform="matrix(1,0,0,1,0,0)"><path stroke-linecap="round" stroke-linejoin="round" fill-opacity="0" stroke="rgb(151,190,229)" stroke-opacity="1" stroke-width="20" d="M0 0"/></g></g><g transform="matrix(1,0,0,1,256,256)" opacity="1" style="display: block;"><g opacity="1" transform="matrix(1,0,0,1,0,0)"><path stroke-linecap="round" stroke-linejoin="round" fill-opacity="0" stroke="rgb(151,190,229)" stroke-opacity="1" stroke-width="15" d="M0 0"/></g></g><g transform="matrix(1,0,0,1,238.96299743652344,274.9840087890625)" opacity="1" style="display: block;"><g opacity="1" transform="matrix(1,0,0,1,0,0)"><path stroke-linecap="round" stroke-linejoin="round" fill-opacity="0" stroke="rgb(255,255,255)" stroke-opacity="1" stroke-width="20" d="M0 0"/></g></g><g transform="matrix(1,0,0,1,286.07598876953125,262.6099853515625)" opacity="1" style="display: block;"><g opacity="1" transform="matrix(1,0,0,1,0,0)"><path stroke-linecap="round" stroke-linejoin="round" fill-opacity="0" stroke="rgb(255,255,255)" stroke-opacity="1" stroke-width="20" d="M0 0"/></g></g></g></g></svg>